<?xml version="1.0" standalone="no"?>
<!DOCTYPE svg PUBLIC "-//W3C//DTD SVG 20010904//EN"
 "http://www.w3.org/TR/2001/REC-SVG-20010904/DTD/svg10.dtd">
<svg version="1.0" xmlns="http://www.w3.org/2000/svg"
 width="1200.000000pt" height="675.000000pt" viewBox="0 0 1200.000000 675.000000"
 preserveAspectRatio="xMidYMid meet">

<g transform="translate(0.000000,675.000000) scale(0.100000,-0.100000)"
fill="#000000" stroke="none">
<path d="M5840 4997 c0 -5 -20 -7 -45 -5 -25 3 -48 2 -51 -3 -3 -5 -10 -7 -15
-4 -5 4 -9 -1 -9 -10 0 -13 -4 -14 -20 -5 -22 12 -33 8 -67 -23 -13 -11 -23
-17 -23 -13 0 4 -10 -2 -22 -14 -12 -11 -27 -19 -33 -17 -15 6 -47 -12 -40
-23 7 -11 -32 -33 -45 -25 -5 3 -12 0 -16 -6 -5 -8 -3 -9 7 -4 8 5 11 4 6 -1
-5 -5 -16 -9 -25 -9 -11 0 -16 -7 -15 -20 1 -11 0 -14 -3 -8 -8 19 -47 -4 -40
-23 3 -9 1 -12 -4 -9 -14 9 -73 -52 -64 -66 4 -7 3 -9 -4 -5 -6 3 -13 2 -17
-4 -3 -5 -1 -10 5 -10 8 0 10 -9 6 -26 -7 -25 7 -54 25 -54 5 0 17 16 26 35
16 33 16 36 -2 48 -17 13 -17 14 0 21 10 4 21 2 24 -3 9 -13 33 3 29 19 -2 7
3 15 9 17 9 3 11 -4 6 -29 -3 -18 -10 -34 -15 -36 -4 -2 -8 -8 -8 -14 0 -5 23
10 50 34 95 81 153 117 238 144 l85 28 258 -22 c209 -18 267 -26 306 -43 123
-55 190 -90 215 -113 33 -31 32 -31 58 -4 11 12 23 18 27 15 4 -4 2 -12 -5
-19 -8 -8 -7 -18 6 -40 17 -29 38 -39 28 -13 -7 18 5 20 22 3 10 -10 11 -5 6
22 -4 19 -13 40 -20 46 -8 6 -14 14 -14 18 0 4 -16 27 -36 52 -36 44 -89 78
-105 68 -5 -3 -9 -1 -9 5 0 5 -20 24 -45 41 -25 17 -45 28 -45 25 0 -4 -7 1
-17 10 -9 10 -26 15 -40 12 -12 -2 -23 -1 -23 4 0 16 -106 32 -139 21 -18 -6
-29 -7 -26 -3 13 22 -87 36 -238 34 -37 -1 -65 2 -63 6 3 4 -4 7 -15 7 -10 0
-19 -4 -19 -9z m-13 -23 c-3 -3 -12 -4 -19 -1 -8 3 -5 6 6 6 11 1 17 -2 13 -5z
m-167 -38 c0 -2 -7 -7 -16 -10 -8 -3 -12 -2 -9 4 6 10 25 14 25 6z m60 0 c0
-3 -4 -8 -10 -11 -5 -3 -10 -1 -10 4 0 6 5 11 10 11 6 0 10 -2 10 -4z m639
-43 c20 -20 21 -22 5 -17 -10 4 -23 13 -27 21 -4 7 -21 13 -37 13 -16 0 -32 5
-35 11 -13 21 70 -4 94 -28z m-376 0 c-7 -2 -19 -2 -25 0 -7 3 -2 5 12 5 14 0
19 -2 13 -5z m115 -10 c-10 -2 -28 -2 -40 0 -13 2 -5 4 17 4 22 1 32 -1 23 -4z
m362 -29 c0 -2 -9 0 -20 6 -11 6 -20 13 -20 16 0 2 9 0 20 -6 11 -6 20 -13 20
-16z m-146 -5 c5 -4 -8 -3 -30 2 -21 6 -41 13 -44 16 -9 9 65 -9 74 -18z
m-779 -7 c-6 -4 -27 -23 -48 -42 -23 -21 -36 -28 -31 -17 3 10 23 29 43 42 33
23 57 35 36 17z"/>
<path d="M5273 4541 c-8 -13 -19 -18 -33 -14 -11 3 -20 1 -20 -5 0 -6 -3 -18
-7 -28 -5 -13 -3 -16 10 -11 9 3 17 2 17 -3 0 -5 -9 -12 -20 -15 -11 -3 -20
-10 -20 -15 0 -13 -46 -60 -59 -60 -6 0 -11 -4 -11 -10 0 -13 12 -13 44 0 18
6 26 6 26 -1 0 -6 5 -7 10 -4 6 3 10 15 10 25 0 14 5 18 16 13 11 -4 15 -1 13
13 -5 26 8 44 32 44 20 0 24 22 11 68 -7 22 -7 22 -19 3z"/>
<path d="M6740 4523 c0 -32 7 -44 35 -59 11 -6 25 -21 32 -34 6 -13 19 -27 27
-32 9 -5 15 -12 12 -16 -2 -4 7 -8 21 -8 l25 -2 -21 22 c-12 12 -18 26 -14 30
4 4 1 11 -7 16 -10 7 -11 10 -2 10 20 0 14 25 -17 59 -17 19 -37 31 -48 30
-10 -2 -24 0 -30 4 -9 6 -13 0 -13 -20z"/>
<path d="M7500 4371 c0 -5 -17 -13 -37 -19 -35 -9 -35 -10 -10 -11 16 -1 37 4
48 9 20 11 26 30 9 30 -5 0 -10 -4 -10 -9z"/>
<path d="M8186 4345 c4 -8 8 -15 10 -15 2 0 4 7 4 15 0 8 -4 15 -10 15 -5 0
-7 -7 -4 -15z"/>
<path d="M3888 4343 c7 -3 16 -2 19 1 4 3 -2 6 -13 5 -11 0 -14 -3 -6 -6z"/>
<path d="M5250 4341 c0 -5 9 -11 20 -14 13 -3 20 0 20 9 0 8 -9 14 -20 14 -11
0 -20 -4 -20 -9z"/>
<path d="M6636 4334 c10 -8 14 -13 9 -10 -6 2 -17 0 -25 -5 -13 -8 -13 -10 -1
-18 20 -13 36 -4 49 25 11 23 10 24 -20 24 -31 0 -31 -1 -12 -16z"/>
<path d="M8390 4341 c0 -5 9 -7 20 -4 11 3 20 7 20 9 0 2 -9 4 -20 4 -11 0
-20 -4 -20 -9z"/>
<path d="M6740 4330 c0 -5 5 -10 10 -10 6 0 10 5 10 10 0 6 -4 10 -10 10 -5 0
-10 -4 -10 -10z"/>
<path d="M8372 4314 c8 -9 23 -14 33 -12 12 2 7 7 -16 15 -30 12 -32 11 -17
-3z"/>
<path d="M8768 4283 c6 -2 18 -2 25 0 6 3 1 5 -13 5 -14 0 -19 -2 -12 -5z"/>
<path d="M7822 4265 c7 -8 209 -7 216 0 3 3 -46 5 -108 5 -62 0 -111 -2 -108
-5z"/>
<path d="M6158 4223 c7 -3 16 -2 19 1 4 3 -2 6 -13 5 -11 0 -14 -3 -6 -6z"/>
<path d="M5555 4206 c-22 -6 -39 -15 -37 -19 7 -16 -4 -27 -29 -29 -20 -2 -25
-7 -21 -20 3 -14 8 -15 23 -7 11 5 19 6 19 0 0 -5 8 -8 17 -7 10 0 19 -7 21
-17 3 -15 -1 -18 -15 -13 -10 3 -24 1 -32 -4 -10 -6 -19 -3 -28 8 -8 12 -12
13 -13 4 0 -7 -4 -10 -10 -7 -5 3 -10 2 -10 -4 0 -16 -33 -18 -62 -3 -15 7
-32 11 -38 7 -5 -3 -10 -1 -10 4 0 6 -7 11 -15 11 -8 0 -15 5 -15 10 0 6 9 10
19 10 24 0 51 10 51 19 0 4 -15 6 -34 6 -19 0 -32 -4 -28 -9 3 -5 -5 -7 -17
-3 -18 4 -20 3 -10 -9 6 -8 8 -18 4 -22 -4 -4 -10 -1 -12 6 -3 6 -13 12 -24
12 -12 0 -16 5 -13 15 5 13 -5 15 -70 14 -84 -2 -107 -13 -47 -23 33 -5 51
-20 51 -42 0 -7 -25 1 -32 11 -5 6 -8 5 -8 -4 0 -8 -6 -11 -15 -7 -9 3 -23 -2
-33 -12 -16 -16 -57 -19 -47 -3 2 4 -10 8 -28 8 -18 1 -26 -1 -19 -4 9 -4 7
-10 -10 -21 -34 -24 -56 -25 -63 -1 -5 16 -9 18 -15 9 -5 -8 -17 -10 -35 -6
-26 7 -26 8 -9 21 17 12 15 13 -18 6 -20 -5 -39 -6 -42 -3 -4 3 -6 0 -6 -7 0
-7 -4 -10 -9 -7 -5 4 -11 1 -13 -5 -2 -6 -36 -10 -83 -11 -98 0 -105 1 -80 12
18 8 18 9 -5 10 -46 3 -64 9 -76 25 -7 9 -18 13 -29 9 -13 -5 -14 -9 -3 -16 9
-7 1 -8 -22 -4 -22 4 -30 3 -21 -3 9 -6 -2 -9 -30 -9 -112 0 -149 -3 -149 -12
0 -6 -11 -10 -25 -10 -14 0 -25 6 -25 13 0 8 -4 7 -11 -3 -8 -11 -12 -12 -16
-2 -2 6 -9 10 -14 6 -5 -3 -9 -1 -9 5 0 13 -51 6 -60 -9 -6 -10 -12 -10 -25 4
-10 9 -24 15 -31 12 -8 -3 -14 -1 -14 3 0 5 -11 8 -24 7 -17 -1 -21 -4 -15
-12 6 -8 5 -17 -3 -25 -16 -16 -18 -50 -3 -46 6 1 9 8 9 14 -1 7 3 10 8 7 6
-4 14 0 19 7 6 9 9 10 9 2 0 -7 12 -10 33 -8 18 3 27 1 19 -4 -7 -4 -10 -15
-6 -24 4 -11 0 -19 -10 -23 -9 -3 -14 -10 -11 -14 11 -18 -23 -17 -38 1 -25
28 -72 20 -65 -12 2 -10 -5 -13 -22 -11 -24 4 -25 3 -5 -12 30 -23 -2 -21 -42
3 -23 14 -33 16 -37 8 -3 -9 -5 -8 -5 1 -1 10 -4 10 -16 -2 -18 -18 -20 -30
-2 -21 6 4 4 0 -6 -9 -13 -10 -17 -22 -12 -38 5 -18 4 -20 -4 -8 -10 13 -11
13 -12 0 0 -10 -3 -8 -8 5 -5 12 -4 23 3 27 24 16 -5 19 -35 4 -40 -20 -42
-20 -34 3 7 24 -21 36 -43 19 -13 -11 -12 -8 1 13 10 14 14 29 11 32 -4 4 -7
21 -8 39 -1 23 -5 32 -15 30 -14 -3 -13 16 4 118 5 30 5 32 -6 16 -6 -11 -13
-38 -15 -60 -2 -22 -7 -42 -12 -45 -4 -3 -14 -26 -21 -51 -18 -66 -63 -170
-73 -170 -4 0 -8 -6 -8 -14 0 -11 -40 -51 -107 -106 -37 -31 -103 -58 -183
-75 -8 -2 -42 -14 -75 -26 -41 -15 -80 -22 -125 -21 -43 0 -59 -2 -50 -8 8 -6
25 -10 37 -10 12 0 31 -12 42 -26 12 -16 21 -21 21 -13 1 10 4 8 11 -4 11 -20
4 -37 -16 -37 -14 0 -29 -45 -20 -60 3 -5 1 -11 -5 -15 -7 -4 -7 -12 0 -25 5
-10 8 -25 5 -33 -3 -7 -1 -26 4 -40 7 -17 7 -27 1 -28 -6 -1 -14 -2 -19 -3 -5
0 -13 -5 -18 -10 -4 -5 -3 -7 2 -3 26 14 39 -12 41 -87 1 -42 -1 -76 -5 -76
-9 0 -7 -73 3 -88 5 -8 4 -18 -2 -24 -6 -6 -8 -16 -5 -23 2 -8 0 -23 -7 -34
-6 -12 -7 -21 -2 -21 5 0 9 -42 10 -92 11 -573 11 -688 2 -688 -6 0 -10 11
-10 25 0 29 -16 34 -24 8 -3 -10 -5 -115 -5 -233 1 -118 -3 -282 -7 -365 -10
-184 -11 -241 -1 -280 5 -22 5 -25 -2 -10 -9 20 -10 20 -10 -1 -1 -11 2 -24 6
-27 4 -4 8 -46 9 -94 3 -91 16 -124 33 -82 9 22 10 23 10 3 1 -18 9 -23 49
-29 26 -4 69 -8 95 -9 35 -1 52 -6 62 -20 8 -10 18 -15 23 -12 6 3 12 2 14 -2
1 -5 30 -23 63 -42 33 -19 68 -41 79 -50 46 -36 106 -93 106 -100 0 -4 17 -34
39 -66 36 -55 68 -144 52 -144 -5 0 -14 19 -21 43 -19 66 -49 118 -94 165 -22
24 -40 47 -39 53 2 5 -2 9 -7 9 -6 0 -29 14 -52 30 -22 17 -47 30 -54 30 -7 0
-19 9 -27 21 -15 21 -128 62 -137 50 -3 -3 -19 -6 -37 -6 -24 0 -29 3 -21 12
8 10 5 13 -13 15 -61 4 -79 5 -117 12 l-41 6 -3 -52 c-2 -29 0 -87 4 -128 3
-41 8 -111 12 -155 3 -44 8 -91 12 -105 7 -22 6 -24 -9 -11 -20 16 -22 4 -6
-36 6 -15 11 -52 9 -81 -1 -51 1 -56 38 -92 41 -38 95 -56 231 -75 75 -10 479
-17 861 -14 434 3 973 1 1730 -5 305 -3 913 -8 1350 -12 437 -4 917 -9 1065
-13 329 -7 562 7 643 40 73 30 107 80 99 145 -3 31 0 56 12 77 13 27 16 70 17
267 1 264 2 261 -70 253 -101 -11 -266 -64 -266 -85 0 -5 -6 -8 -12 -7 -28 3
-39 -4 -105 -69 -96 -97 -130 -142 -116 -156 3 -3 0 -6 -9 -6 -9 0 -22 -21
-34 -57 -10 -32 -25 -69 -34 -83 -8 -13 -14 -25 -12 -27 8 -10 -1 -23 -15 -22
-11 0 -13 3 -5 6 6 2 12 11 12 19 0 28 54 150 87 195 18 26 33 51 33 55 0 13
70 86 116 120 21 16 46 37 54 47 8 10 23 19 33 21 10 1 22 7 25 13 8 12 116
44 147 44 30 -1 75 20 75 34 0 7 7 15 15 18 11 5 13 0 8 -23 -4 -24 -2 -30 11
-30 16 0 17 21 17 228 0 125 2 349 5 497 4 244 -6 597 -14 501 -4 -49 -27 -76
-36 -43 -3 13 0 25 9 30 14 7 13 10 0 23 -19 20 -19 38 0 30 8 -3 15 -1 15 5
0 6 6 9 13 6 9 -3 13 6 13 32 -1 20 3 80 7 134 5 59 4 97 -1 93 -5 -3 -7 10
-5 29 2 22 -1 35 -8 35 -6 0 -9 7 -6 15 4 8 2 17 -3 20 -6 4 -10 -14 -10 -41
0 -67 -19 -44 -27 32 -8 87 -8 116 1 143 6 16 5 21 -3 17 -7 -5 -9 2 -6 21 12
80 13 102 3 105 -6 2 -4 11 6 20 14 14 14 19 3 30 -11 9 -11 20 -4 46 8 26 8
35 -2 42 -11 6 -11 12 3 31 18 27 22 54 5 43 -8 -5 -10 1 -7 19 3 15 1 24 -3
21 -12 -7 -11 10 1 22 5 5 11 68 12 139 l3 130 28 3 c15 2 27 9 27 18 0 10
-14 14 -52 14 -29 0 -60 5 -68 10 -13 8 -12 10 3 10 18 0 38 36 30 56 -2 6
-15 16 -29 23 -20 9 -30 8 -50 -5 -22 -15 -24 -15 -18 -1 8 21 48 47 72 47 23
0 56 -45 46 -62 -5 -8 -2 -9 10 -5 10 4 20 7 22 7 2 0 4 6 4 13 0 7 9 18 20
24 16 11 21 10 29 -5 12 -19 12 -17 16 127 l3 84 -24 -29 c-13 -16 -23 -24
-24 -18 0 7 -8 14 -19 17 -18 4 -19 13 -8 71 2 11 12 22 22 26 18 6 18 7 -1
14 -11 4 -20 3 -22 -3 -2 -6 -11 -11 -20 -11 -12 0 -14 2 -5 8 10 6 10 12 -2
28 -8 10 -24 38 -34 61 -19 41 -20 41 -56 33 -30 -7 -46 -4 -79 13 -36 20 -56
22 -178 22 -119 0 -139 -3 -157 -19 -11 -10 -18 -23 -15 -27 3 -5 0 -9 -5 -9
-6 0 -11 -11 -11 -25 0 -28 12 -32 30 -10 14 16 65 21 74 6 3 -5 15 -7 26 -4
23 6 28 -15 8 -35 -9 -9 -9 -12 1 -12 7 0 10 -4 6 -9 -3 -6 6 -9 19 -8 14 1
25 -2 25 -8 1 -5 -13 -10 -29 -11 -38 -1 -88 -46 -86 -77 1 -23 25 -30 39 -12
5 6 11 4 17 -7 6 -9 17 -15 24 -12 9 4 16 -6 20 -30 4 -21 13 -36 21 -36 18 0
60 -53 46 -58 -21 -7 -11 -32 17 -38 15 -4 29 -10 32 -14 10 -13 74 -40 96
-40 14 0 28 -9 35 -21 10 -20 9 -21 -14 -15 -15 3 -39 11 -54 18 -31 13 -38
15 -53 17 -5 0 -10 8 -10 16 0 9 -9 15 -25 15 -13 0 -28 6 -32 13 -4 6 -24 20
-43 31 -49 25 -114 98 -142 157 -24 51 -39 64 -31 27 4 -23 4 -23 -12 -3 -17
19 -17 18 -11 -28 3 -26 2 -46 -2 -44 -4 3 -16 -5 -27 -16 -11 -11 -15 -17 -9
-14 7 4 12 -3 12 -18 l0 -25 -19 24 c-11 13 -19 29 -19 34 0 6 -6 12 -12 15
-10 4 -10 7 0 18 17 19 15 29 -7 29 -10 0 -21 7 -25 15 -3 9 0 15 8 15 7 0 31
17 53 38 l40 38 20 -22 c25 -28 65 -22 94 15 l20 26 -21 17 c-27 22 -69 23
-76 3 -4 -11 -11 -12 -24 -5 -9 5 -21 6 -25 2 -5 -4 -5 -1 -1 6 5 7 1 12 -9
12 -11 0 -15 -5 -11 -15 3 -9 -1 -18 -8 -21 -8 -3 -13 -14 -11 -25 2 -11 0
-17 -6 -14 -5 4 -7 10 -4 15 7 11 -20 20 -57 20 -23 0 -29 4 -24 15 3 8 1 15
-4 15 -6 0 -10 -5 -10 -11 0 -6 -7 -3 -16 5 -8 9 -12 20 -9 26 3 5 2 10 -4 10
-6 0 -8 7 -5 15 9 22 -11 18 -22 -4 -7 -15 -14 -17 -31 -10 -27 10 -30 24 -7
33 8 3 12 2 9 -4 -3 -6 -2 -10 4 -10 5 0 11 6 13 12 3 8 19 12 41 10 30 -3 37
0 37 15 0 19 2 18 -104 14 -21 -1 -27 -5 -22 -16 10 -27 -4 -46 -25 -34 -13 6
-19 6 -19 -1 0 -5 -9 -10 -21 -10 -13 0 -18 -4 -13 -12 5 -8 2 -9 -10 -5 -10
4 -21 7 -26 7 -13 0 -20 43 -8 57 11 13 5 15 -57 15 -57 0 -75 -2 -75 -10 0
-5 23 -8 50 -8 28 1 50 -2 50 -6 0 -8 -16 -12 -34 -9 -4 1 -5 -10 -2 -24 7
-29 0 -32 -25 -9 -10 9 -30 17 -43 17 -15 0 -27 6 -29 16 -4 12 -5 12 -6 -3
-1 -19 -2 -19 -14 -2 -12 17 -14 17 -20 2 -4 -9 -1 -16 5 -16 6 0 9 -3 6 -6
-4 -3 -19 3 -35 13 -26 16 -27 16 -14 0 8 -10 11 -21 7 -24 -4 -4 -11 -1 -16
7 -7 11 -10 12 -10 2 0 -7 -5 -10 -11 -6 -7 4 -8 9 0 17 12 12 -33 51 -52 44
-9 -4 -9 -6 1 -6 21 -1 3 -21 -19 -21 -10 0 -19 -5 -19 -10 0 -7 -6 -7 -19 0
-26 13 -121 13 -121 -1 0 -5 -4 -7 -10 -4 -5 3 -10 1 -10 -6 0 -8 -6 -6 -18 4
-22 20 -75 19 -68 0 6 -16 -10 -17 -19 -2 -4 6 -13 8 -21 5 -7 -3 -17 0 -20 6
-5 8 -10 5 -15 -8 -7 -17 -8 -17 -8 -1 -1 9 -7 17 -15 17 -7 0 -19 7 -26 15
-7 8 -17 15 -23 15 -6 0 -8 -3 -4 -6 9 -9 -19 -34 -37 -34 -8 0 -20 9 -26 20
-12 23 -1 27 31 10 15 -8 19 -7 19 5 0 16 -18 19 -87 16 -24 -2 -51 4 -65 13
-16 11 -40 14 -76 12 -36 -3 -57 1 -67 10 -7 8 -15 9 -17 4 -2 -5 -29 -11 -60
-12 -46 -3 -58 0 -61 14 -6 20 14 30 34 17 20 -12 32 -11 55 6 17 13 1 14
-144 15 -106 0 -161 -3 -157 -10 3 -5 0 -10 -7 -10 -8 -1 -6 -6 6 -15 10 -8
23 -12 29 -8 5 3 3 9 -4 14 -10 6 -7 9 11 10 14 1 44 3 66 4 36 3 41 1 37 -15
-7 -26 -30 -32 -49 -13 -10 10 -18 12 -22 6 -4 -5 -20 -13 -35 -17 -15 -4 -25
-11 -22 -16 3 -5 -1 -7 -8 -4 -8 3 -18 15 -22 27 -6 22 -6 22 -15 2 -5 -11 -9
-14 -9 -7 -1 10 -9 12 -30 7 -18 -4 -32 -2 -37 6 -5 9 -2 10 9 6 10 -4 17 -2
17 4 0 6 9 9 19 6 12 -3 18 0 17 9 -4 24 -16 28 -35 10 -14 -13 -28 -16 -50
-11 -22 5 -31 3 -31 -6 0 -7 -8 -3 -17 8 -21 23 -98 29 -195 15 -34 -5 -58 -5
-58 0 0 5 -5 6 -11 3 -6 -5 -3 -13 10 -22 12 -8 25 -12 30 -9 5 3 11 -1 15 -9
4 -10 -1 -14 -17 -12 -12 1 -24 4 -27 7 -20 21 -58 27 -88 14 -18 -7 -32 -17
-32 -23 0 -10 -25 -9 -36 2 -4 3 -1 13 6 22 10 12 16 13 26 4 11 -9 15 -7 20
5 3 9 15 16 27 16 11 0 18 2 15 5 -6 6 -334 10 -423 5 -33 -1 -69 0 -80 3 -11
3 -38 0 -60 -7z m135 -36 c0 -5 -5 -10 -12 -12 -18 -6 -62 4 -50 11 15 9 62
10 62 1z m1109 -4 c9 -10 8 -15 -4 -20 -10 -4 -15 1 -15 14 0 24 4 25 19 6z
m-1196 -3 c-7 -2 -21 -2 -30 0 -10 3 -4 5 12 5 17 0 24 -2 18 -5z m704 -9 c5
-15 -20 -24 -37 -14 -7 4 -9 13 -5 19 8 14 37 11 42 -5z m-667 -41 c0 -10 -35
-12 -78 -4 -2 1 -1 5 3 10 8 14 75 8 75 -6z m943 8 c4 -1 7 -5 7 -10 0 -5 -18
-8 -40 -6 -25 2 -46 -2 -54 -11 -16 -16 -36 -19 -36 -5 0 5 -9 7 -20 4 -11 -3
-20 0 -20 6 0 6 7 12 15 12 8 1 24 2 34 3 11 0 22 4 26 8 6 5 42 5 88 -1z
m-266 -23 c-3 -8 -6 -5 -6 6 -1 11 2 17 5 13 3 -3 4 -12 1 -19z m-607 -18 c0
-5 -5 -10 -11 -10 -5 0 -7 5 -4 10 3 6 8 10 11 10 2 0 4 -4 4 -10z m3228 -47
c24 -36 32 -58 24 -69 -10 -13 -60 -34 -82 -34 -11 0 -20 -6 -20 -12 0 -7 -5
-5 -11 5 -6 9 -13 16 -17 13 -4 -2 -8 6 -8 19 -2 22 -1 22 25 7 32 -18 76 -10
85 14 8 21 -19 64 -41 64 -9 0 -25 -7 -35 -17 -18 -16 -24 -8 -10 13 21 31 67
30 90 -3z m-4698 -3 c0 -5 -2 -10 -4 -10 -3 0 -8 5 -11 10 -3 6 -1 10 4 10 6
0 11 -4 11 -10z m1445 0 c3 -5 -1 -10 -10 -10 -9 0 -13 5 -10 10 3 6 8 10 10
10 2 0 7 -4 10 -10z m2129 -9 c6 -9 -35 -24 -43 -15 -6 5 18 24 31 24 4 0 9
-4 12 -9z m-3644 -11 c0 -5 -4 -10 -10 -10 -5 0 -10 5 -10 10 0 6 5 10 10 10
6 0 10 -4 10 -10z m3820 6 c0 -3 -4 -8 -10 -11 -5 -3 -10 -1 -10 4 0 6 5 11
10 11 6 0 10 -2 10 -4z m-3785 -17 c8 -13 6 -15 -23 -24 -22 -6 -22 -5 -10 14
14 23 24 26 33 10z m4485 -19 c0 -5 -4 -10 -9 -10 -6 0 -13 5 -16 10 -3 6 1
10 9 10 9 0 16 -4 16 -10z m-4449 -23 c-1 -12 -15 -9 -19 4 -3 6 1 10 8 8 6
-3 11 -8 11 -12z m4109 3 c0 -5 -2 -10 -4 -10 -3 0 -8 5 -11 10 -3 6 -1 10 4
10 6 0 11 -4 11 -10z m-3574 -53 c13 -16 24 -37 24 -48 0 -10 7 -19 15 -19 10
0 3 -11 -18 -30 -19 -16 -45 -30 -58 -30 -32 0 -79 45 -79 74 0 27 35 76 55
76 7 0 16 8 20 18 6 14 8 15 13 2 3 -8 16 -28 28 -43z m776 26 l42 -28 522 0
c456 0 521 -2 509 -14 -12 -13 -93 -15 -524 -14 -476 1 -513 2 -547 19 -21 11
-41 29 -45 42 -11 28 -7 28 43 -5z m-1424 -18 c-3 -3 -9 2 -12 12 -6 14 -5 15
5 6 7 -7 10 -15 7 -18z m4115 16 c46 -1 51 -26 6 -35 -21 -4 -38 0 -54 12 -29
20 -32 32 -7 27 9 -2 34 -4 55 -4z m77 -11 c0 -11 -7 -20 -15 -20 -27 0 -18
30 13 39 1 1 2 -8 2 -19z m426 -33 c9 3 14 -2 14 -16 0 -44 -45 -12 -55 39
l-6 35 16 -32 c11 -20 22 -30 31 -26z m-4871 25 c-3 -3 -11 0 -18 7 -9 10 -8
11 6 5 10 -3 15 -9 12 -12z m4155 -34 c0 -5 -4 -8 -10 -8 -5 0 -10 10 -10 23
0 18 2 19 10 7 5 -8 10 -18 10 -22z m-4193 0 c-3 -8 -6 -5 -6 6 -1 11 2 17 5
13 3 -3 4 -12 1 -19z m4247 -12 c-7 -30 -23 -35 -21 -7 0 11 5 17 9 15 4 -3 8
3 8 12 0 10 2 15 5 12 4 -3 3 -17 -1 -32z m-4301 -6 c3 -11 1 -18 -4 -14 -5 3
-9 -2 -9 -11 0 -9 -5 -13 -10 -10 -6 4 -7 11 -4 17 5 8 1 9 -10 5 -10 -4 -15
-3 -11 3 3 6 13 10 21 10 8 0 14 5 14 11 0 5 -5 7 -12 3 -7 -4 -8 -3 -4 5 10
15 22 7 29 -19z m3882 20 c3 -5 -1 -10 -9 -10 -9 0 -16 5 -16 10 0 6 4 10 9
10 6 0 13 -4 16 -10z m-3985 -30 c0 -11 -4 -20 -8 -20 -4 0 -8 9 -9 20 -1 11
2 20 8 20 5 0 9 -9 9 -20z m3694 -5 c26 -39 18 -51 -13 -21 -31 29 -64 30 -75
1 -7 -19 -26 -19 -26 -1 0 48 86 64 114 21z m-803 -1 c152 -12 179 -17 217
-42 20 -13 21 -17 8 -24 -14 -8 -10 -18 27 -66 55 -72 96 -151 99 -194 2 -20
10 -36 21 -40 23 -10 25 -96 2 -104 -18 -7 -20 -24 -3 -24 39 0 63 -74 38
-120 -12 -23 -61 -40 -114 -40 -69 0 -81 7 -94 54 -31 117 -149 163 -250 98
-26 -17 -62 -81 -62 -112 0 -20 -4 -20 -337 -20 -186 0 -343 4 -349 8 -6 4
-17 24 -23 44 -26 78 -105 121 -194 104 -42 -8 -92 -59 -107 -111 -8 -27 -20
-44 -38 -53 -33 -15 -124 -16 -140 0 -7 7 -12 36 -12 66 0 44 3 55 18 59 15 4
18 13 15 61 -8 139 -4 241 12 303 19 76 21 79 59 103 49 31 133 46 306 52 91
4 167 8 169 11 10 8 594 -2 732 -13z m2488 -26 c-5 -10 -14 -18 -19 -18 -6 0
-10 -7 -10 -16 0 -11 -5 -14 -16 -10 -9 3 -18 6 -20 6 -2 0 -4 5 -4 11 0 5 5
7 10 4 6 -3 10 -1 10 4 0 6 -7 11 -15 11 -14 0 -20 12 -10 21 2 3 22 5 44 5
36 1 39 -1 30 -18z m-269 8 c0 -3 -4 -8 -10 -11 -5 -3 -10 -1 -10 4 0 6 5 11
10 11 6 0 10 -2 10 -4z m134 -31 c3 -8 1 -15 -4 -15 -6 0 -10 7 -10 15 0 8 2
15 4 15 2 0 6 -7 10 -15z m-758 -19 c3 -14 3 -30 -1 -36 -10 -16 -39 26 -31
45 8 23 25 18 32 -9z m-836 -29 l25 -4 -25 -2 c-28 -1 -70 24 -70 41 0 6 10 2
23 -9 12 -12 33 -23 47 -26z m1515 23 c3 -5 2 -10 -4 -10 -5 0 -13 5 -16 10
-3 6 -2 10 4 10 5 0 13 -4 16 -10z m-108 -26 c2 -7 -6 -10 -22 -7 -14 3 -25
10 -25 15 0 13 43 6 47 -8z m313 -24 c0 -13 -1 -13 -10 0 -5 8 -10 22 -10 30
0 13 1 13 10 0 5 -8 10 -22 10 -30z m-170 10 c0 -5 -2 -10 -4 -10 -3 0 -8 5
-11 10 -3 6 -1 10 4 10 6 0 11 -4 11 -10z m-5585 -100 c-3 -5 -11 -10 -16 -10
-6 0 -7 5 -4 10 3 6 11 10 16 10 6 0 7 -4 4 -10z m57 -52 c-7 -7 -12 -8 -12
-2 0 6 3 14 7 17 3 4 9 5 12 2 2 -3 -1 -11 -7 -17z m4736 -38 l22 -21 -32 -39
c-17 -22 -37 -40 -43 -40 -18 0 -13 45 5 46 35 2 40 5 40 24 0 11 -4 20 -10
20 -5 0 -10 -4 -10 -10 0 -18 -18 -11 -23 9 -9 37 18 42 51 11z m-80 -24 c-10
-7 -15 -15 -12 -18 3 -4 1 -9 -5 -13 -15 -9 -14 18 1 33 7 7 17 12 23 12 5 0
2 -7 -7 -14z m-4340 -58 c-6 -18 -28 -21 -28 -4 0 9 7 16 16 16 9 0 14 -5 12
-12z m4336 -2 c-3 -8 0 -17 5 -21 6 -3 9 -10 6 -14 -2 -5 23 -16 58 -26 96
-27 275 -94 352 -132 85 -42 198 -116 244 -160 l35 -32 -58 -188 c-32 -103
-64 -208 -71 -233 -7 -25 -33 -110 -58 -190 -25 -80 -59 -188 -75 -240 -16
-52 -34 -96 -40 -98 -6 -2 -135 35 -288 82 -152 47 -279 84 -282 82 -2 -3 -14
-103 -27 -223 -77 -708 -106 -970 -111 -986 -3 -10 -16 -24 -28 -33 -21 -13
-56 -11 -352 21 -181 20 -376 40 -434 46 -115 11 -153 28 -158 72 -5 38 128
1268 140 1300 6 16 21 30 35 33 14 4 92 -1 175 -10 83 -10 154 -14 158 -9 3 4
12 26 18 48 7 22 34 110 61 195 27 85 61 196 76 245 14 50 39 128 54 175 16
47 41 127 56 178 25 80 32 94 54 100 44 12 281 7 364 -7 42 -8 80 -11 83 -8 3
3 1 15 -6 26 -9 17 -8 21 4 21 9 0 13 -6 10 -14z m926 -168 c0 -17 -17 -6 -33
21 -25 42 -21 49 8 15 14 -16 25 -32 25 -36z m-3267 2 c49 -39 41 -131 -12
-160 -30 -15 -83 -12 -107 8 -76 61 -40 172 56 172 22 0 48 -8 63 -20z m1014
5 c29 -20 46 -75 34 -108 -27 -71 -109 -91 -162 -38 -38 39 -39 87 -3 130 21
26 33 31 68 31 23 0 51 -7 63 -15z m-2342 -31 c147 -35 302 -148 378 -275 21
-35 49 -101 64 -147 23 -75 25 -94 21 -200 -5 -100 -10 -128 -37 -197 -75
-192 -238 -334 -437 -381 -99 -23 -246 -15 -341 18 -136 48 -264 155 -337 281
-13 23 -36 75 -50 115 -22 62 -26 90 -26 186 0 93 4 125 25 185 56 167 170
299 317 370 140 67 271 81 423 45z m4571 -380 c-3 -9 -6 -20 -6 -25 0 -6 -4
-8 -9 -5 -12 8 -2 46 11 46 6 0 7 -7 4 -16z m94 -278 c0 -24 -17 -28 -23 -6
-3 13 0 20 9 20 8 0 14 -6 14 -14z m-2938 -131 c22 -132 93 -547 167 -975 32
-190 58 -346 56 -348 -4 -4 -913 -162 -933 -162 -14 0 -25 49 -69 303 -28 166
-84 485 -124 710 -39 224 -69 410 -66 413 3 3 126 26 274 51 147 25 351 60
453 78 102 18 194 32 205 31 17 -1 22 -14 37 -101z m2935 79 c3 -8 0 -21 -8
-27 -8 -7 -11 -8 -7 -3 4 5 3 17 -3 27 -7 13 -6 19 1 19 6 0 13 -7 17 -16z m3
-53 c0 -6 -4 -13 -10 -16 -5 -3 -10 1 -10 9 0 9 5 16 10 16 6 0 10 -4 10 -9z
m0 -62 c0 -5 -4 -9 -10 -9 -5 0 -10 7 -10 16 0 8 5 12 10 9 6 -3 10 -10 10
-16z m0 -55 c0 -14 -3 -14 -15 -4 -8 7 -15 14 -15 16 0 2 7 4 15 4 8 0 15 -7
15 -16z m-6 -194 c1 -16 -4 -30 -9 -30 -7 0 -9 15 -7 36 5 41 15 38 16 -6z
m-5906 -69 c-1 -16 3 -35 9 -43 7 -8 8 -19 3 -27 -5 -9 -3 -22 3 -33 10 -15 9
-21 -3 -28 -20 -13 -40 -13 -40 1 0 5 5 7 10 4 6 -3 10 -1 10 4 0 6 -5 11 -11
11 -8 0 -8 5 1 15 7 9 8 15 2 15 -13 0 -21 82 -9 98 16 21 29 13 25 -17z
m5902 -6 c10 -12 10 -15 -4 -15 -9 0 -16 7 -16 15 0 8 2 15 4 15 2 0 9 -7 16
-15z m16 -55 c1 -25 -1 -28 -17 -19 -11 5 -19 14 -19 20 0 6 4 8 9 5 5 -3 11
1 15 9 8 22 11 19 12 -15z m-5906 -115 c0 -16 -6 -25 -15 -25 -16 0 -19 9 -9
34 9 25 24 19 24 -9z m5894 -11 c3 -8 2 -12 -4 -9 -6 3 -10 10 -10 16 0 14 7
11 14 -7z m-5894 -49 c0 -16 -6 -25 -15 -25 -16 0 -19 9 -9 34 9 25 24 19 24
-9z m5910 -5 c0 -18 -3 -19 -21 -9 -17 9 -19 13 -8 20 22 14 29 11 29 -11z
m-5914 -67 c-11 -11 -19 6 -11 24 8 17 8 17 12 0 3 -10 2 -21 -1 -24z m5894
17 c0 -5 -2 -10 -4 -10 -3 0 -8 5 -11 10 -3 6 -1 10 4 10 6 0 11 -4 11 -10z
m-5891 -47 c0 -5 -4 -17 -9 -28 -8 -18 -9 -17 -9 8 -1 15 4 27 9 27 6 0 10 -3
9 -7z m5891 -3 c0 -5 -5 -10 -11 -10 -5 0 -7 5 -4 10 3 6 8 10 11 10 2 0 4 -4
4 -10z m10 -55 c-7 -9 -15 -13 -19 -10 -3 3 1 10 9 15 21 14 24 12 10 -5z
m-5907 -32 c-3 -7 -10 -13 -15 -13 -6 0 -7 7 -4 16 3 9 6 21 6 27 0 7 4 7 9
-2 5 -8 7 -20 4 -28z m5913 -28 c-5 -13 -8 -14 -20 -3 -12 11 -12 14 3 19 20
8 25 4 17 -16z m-5916 -14 c0 -10 -7 -21 -15 -25 -9 -3 -15 0 -15 10 0 8 5 12
10 9 6 -3 10 1 10 9 0 9 2 16 5 16 3 0 5 -9 5 -19z m5910 -67 c0 -17 -6 -24
-17 -23 -11 0 -13 3 -5 6 14 6 16 43 2 43 -5 0 -10 5 -10 11 0 8 5 8 15 -1 8
-7 15 -23 15 -36z m-5913 -6 c-3 -7 -5 -2 -5 12 0 14 2 19 5 13 2 -7 2 -19 0
-25z m1 -62 c-3 -13 -6 -12 -23 1 -16 13 -17 15 -2 10 12 -5 17 -1 18 11 0 10
3 12 6 5 2 -7 3 -19 1 -27z m5909 -62 c-3 -3 -12 -4 -19 -1 -8 3 -5 6 6 6 11
1 17 -2 13 -5z m-5910 -46 c-3 -8 -6 -5 -6 6 -1 11 2 17 5 13 3 -3 4 -12 1
-19z m5912 -27 c0 -16 -3 -20 -6 -11 -3 8 -10 20 -14 26 -5 7 -3 11 6 11 10 0
15 -10 14 -26z m-5912 -43 c-3 -7 -5 -2 -5 12 0 14 2 19 5 13 2 -7 2 -19 0
-25z m5910 -14 c2 -13 1 -15 -4 -4 -3 8 -11 19 -17 23 -7 6 -6 7 4 4 8 -2 16
-12 17 -23z m-5910 -36 c-3 -8 -6 -5 -6 6 -1 11 2 17 5 13 3 -3 4 -12 1 -19z
m5909 -61 c1 -17 -1 -24 -3 -14 -2 9 -9 17 -15 17 -6 0 -6 6 2 15 16 19 15 20
16 -18z m-5909 1 c-3 -8 -6 -5 -6 6 -1 11 2 17 5 13 3 -3 4 -12 1 -19z m-45
-203 c3 -14 1 -25 -3 -25 -5 0 -9 11 -9 25 0 14 2 25 4 25 2 0 6 -11 8 -25z
m5898 -34 c5 -21 7 -47 4 -56 -5 -13 -3 -16 7 -13 8 2 15 14 17 26 4 25 12 28
30 10 9 -9 7 -17 -9 -34 -21 -23 -18 -49 6 -40 10 3 10 -4 2 -35 -11 -45 -30
-47 -37 -4 -3 16 -9 28 -15 26 -5 -1 -11 3 -14 10 -2 6 1 9 7 5 6 -3 13 -2 16
3 10 15 -16 26 -63 26 -24 0 -46 5 -48 11 -2 6 7 9 24 7 20 -3 34 2 48 17 19
20 19 23 3 51 -14 24 -15 29 -3 29 8 0 19 -17 25 -39z m-5797 8 c-17 -17 6
-58 36 -65 45 -10 47 -12 9 -13 -30 -1 -41 4 -54 24 -14 21 -15 30 -5 52 6 14
15 23 18 19 4 -3 2 -11 -4 -17z m1665 -71 c18 -18 14 -30 -6 -19 -11 6 -24 6
-35 0 -9 -6 -21 -8 -26 -4 -5 3 -12 -1 -14 -7 -4 -9 -6 -8 -6 3 -2 35 60 54
87 27z m2569 -47 c7 -9 12 -23 13 -31 0 -8 -6 -4 -13 10 -18 36 -61 39 -82 6
-19 -29 -7 -62 28 -76 16 -6 17 -9 6 -9 -9 -1 -27 7 -39 17 -18 15 -21 24 -15
50 12 57 70 76 102 33z m-2607 -21 c0 -5 -8 -10 -17 -10 -15 0 -16 2 -3 10 19
12 20 12 20 0z m4280 -70 c0 -5 -5 -10 -11 -10 -5 0 -7 5 -4 10 3 6 8 10 11
10 2 0 4 -4 4 -10z m-5480 -80 c0 -5 -11 -10 -25 -10 -13 0 -29 -8 -34 -17 -6
-10 -11 -13 -11 -6 0 14 39 43 57 43 7 0 13 -4 13 -10z m-287 -30 c15 -16 23
-30 17 -30 -5 0 -10 -4 -10 -10 0 -5 7 -10 17 -10 14 0 14 -2 -2 -20 -11 -13
-31 -20 -52 -20 l-34 0 27 23 c20 18 25 29 20 45 -10 31 -39 44 -70 32 -15 -5
-26 -6 -26 0 0 10 23 17 61 19 17 1 35 -9 52 -29z m317 20 c0 -5 -2 -10 -4
-10 -3 0 -8 5 -11 10 -3 6 -1 10 4 10 6 0 11 -4 11 -10z m5400 -17 c0 -8 -13
-25 -29 -38 -21 -19 -27 -31 -23 -50 2 -14 0 -25 -6 -25 -6 0 -8 9 -5 20 3 13
0 20 -9 20 -19 0 -44 -32 -40 -52 2 -13 -1 -16 -12 -12 -14 6 -14 10 5 41 16
26 19 37 10 46 -16 16 -14 30 4 23 9 -3 15 0 15 10 0 10 6 14 15 10 9 -3 23 3
33 13 19 20 42 17 42 -6z m-439 -14 c41 -44 30 -47 -15 -4 -21 19 -32 35 -26
35 7 0 25 -14 41 -31z m-5438 -14 c37 -7 66 -50 40 -59 -8 -3 -11 -1 -8 5 10
16 -16 40 -36 34 -25 -8 -53 20 -43 43 7 16 7 16 11 0 3 -10 18 -20 36 -23z
m5740 8 c3 -5 -8 -8 -23 -8 -15 0 -26 3 -23 8 2 4 13 7 23 7 10 0 21 -3 23 -7z
m-5319 -58 c23 -8 30 -6 43 10 9 12 13 14 11 5 -7 -25 -48 -40 -72 -28 -34 18
-48 38 -41 55 5 15 8 14 18 -7 7 -14 25 -29 41 -35z m136 -20 c0 -5 -5 -3 -10
5 -5 8 -10 20 -10 25 0 6 5 3 10 -5 5 -8 10 -19 10 -25z m4843 2 c6 3 7 1 3
-5 -4 -7 -18 -12 -31 -12 -13 0 -26 -6 -28 -12 -3 -7 -6 1 -6 19 -1 31 -1 32
26 18 15 -8 31 -11 36 -8z m42 13 c-3 -5 -11 -10 -16 -10 -6 0 -7 5 -4 10 3 6
11 10 16 10 6 0 7 -4 4 -10z m-4102 -7 c-7 -2 -21 -2 -30 0 -10 3 -4 5 12 5
17 0 24 -2 18 -5z m4331 -8 c3 -8 17 -15 31 -15 27 0 28 -1 19 -23 -4 -12 -11
-13 -35 -5 -16 5 -29 14 -29 18 0 4 -19 6 -42 3 -44 -6 -46 0 -6 23 32 17 55
17 62 -1z"/>
<path d="M4719 3881 c12 -12 17 -27 14 -41 -7 -27 -26 -21 -33 11 -4 15 -9 19
-13 12 -20 -33 33 -65 72 -43 40 21 18 80 -29 80 -30 0 -30 0 -11 -19z"/>
<path d="M5672 3663 l3 -78 98 -3 97 -3 0 81 0 80 -100 0 -101 0 3 -77z"/>
<path d="M5942 3663 l3 -78 80 -3 c126 -5 125 -5 125 83 l0 75 -105 0 -106 0
3 -77z"/>
<path d="M6202 3663 l3 -78 100 0 100 0 3 78 3 77 -106 0 -106 0 3 -77z"/>
<path d="M6464 3726 c-3 -7 -4 -40 -2 -72 l3 -59 145 -2 c80 -1 139 1 133 3
-17 7 -16 29 2 44 12 10 22 8 52 -11 21 -13 41 -28 45 -33 5 -7 8 -6 8 2 0 17
-27 70 -57 110 l-24 32 -150 0 c-117 0 -151 -3 -155 -14z"/>
<path d="M7566 3421 c-26 -5 -31 -14 -51 -81 -13 -41 -68 -221 -124 -400 -56
-179 -109 -349 -118 -378 -9 -30 -22 -60 -30 -67 -7 -8 -13 -21 -13 -29 0 -19
-10 -20 -168 -4 -120 12 -123 12 -144 -9 -19 -20 -26 -70 -86 -633 l-66 -611
21 -20 c16 -17 44 -24 134 -35 63 -7 130 -13 149 -12 19 0 -32 8 -114 18 -119
14 -152 21 -163 36 -18 25 -28 -91 76 878 29 269 43 362 54 374 14 13 32 13
158 2 l142 -13 -7 -95 c-6 -76 -5 -93 6 -89 7 3 36 13 65 23 l51 17 48 -31
c26 -18 50 -32 54 -32 4 0 12 38 17 85 6 47 12 88 14 90 7 6 261 -25 280 -35
23 -13 24 -51 8 -199 -6 -56 -9 -106 -7 -113 5 -12 30 221 30 270 1 45 -29 60
-142 71 -162 17 -170 19 -170 43 0 19 4 20 88 14 l87 -5 -70 23 c-106 36 -65
30 65 -9 63 -19 123 -35 132 -35 9 0 29 -6 45 -14 15 -8 39 -19 53 -25 24 -9
24 -10 -5 -5 -29 5 -30 4 -31 -35 l-2 -40 142 -45 c250 -79 418 -128 422 -123
3 3 39 114 80 248 41 134 104 340 140 457 74 241 75 217 -18 289 -165 127
-491 250 -748 283 -83 10 -239 11 -284 1z m45 -73 c-29 -10 -26 -53 3 -53 14
0 22 10 28 33 11 43 25 41 35 -5 l7 -38 7 40 6 40 2 -37 c2 -52 31 -54 31 -3
0 33 2 35 33 34 17 0 26 -3 20 -6 -15 -6 -17 -33 -3 -33 5 0 14 9 20 20 13 24
38 26 47 4 4 -11 8 -12 13 -4 11 19 66 2 78 -23 l11 -22 0 22 c1 16 5 21 17
16 11 -4 15 -15 12 -39 -2 -19 -3 -34 -1 -34 1 0 10 16 19 35 20 43 34 37 34
-16 0 -38 -13 -52 -23 -26 -4 9 -8 9 -15 -2 -13 -18 -32 -5 -33 22 -1 20 -2
20 -9 -3 l-7 -25 -10 24 c-8 20 -11 21 -16 8 -10 -25 -37 -21 -38 6 0 21 -1
21 -9 2 -8 -18 -9 -18 -10 5 -1 25 -1 25 -10 3 -12 -28 -46 -30 -55 -3 -8 26
-21 25 -30 -2 l-7 -23 -8 25 c-7 23 -8 23 -9 3 -1 -17 -7 -21 -32 -19 -17 1
-35 9 -40 17 -6 9 -11 11 -16 3 -13 -18 -45 -25 -59 -13 -31 26 -3 102 30 82
5 -4 -1 -10 -13 -15z m541 -78 l19 25 -6 -40 -6 -40 18 28 c24 37 33 34 34
-10 1 -37 1 -38 11 -10 5 15 14 27 18 27 5 0 3 -15 -5 -34 -13 -29 -13 -35 0
-40 9 -3 18 6 27 30 10 27 16 33 33 28 11 -3 25 -12 31 -20 6 -7 15 -10 19 -6
5 4 5 -1 2 -11 -24 -66 -19 -89 8 -37 9 17 20 30 26 30 14 0 -19 -60 -38 -67
-9 -3 -21 0 -27 8 -6 8 -20 14 -31 14 -11 0 -19 5 -18 12 2 7 -4 10 -13 6 -20
-7 -64 16 -64 34 0 9 -8 11 -25 7 -20 -5 -25 -2 -25 12 0 16 -2 17 -11 4 -9
-12 -12 -13 -16 -1 -5 11 -7 11 -14 0 -16 -25 -10 9 8 49 l17 37 4 -30 4 -29
20 24z m-77 -10 c3 -5 -1 -10 -9 -10 -9 0 -16 5 -16 10 0 6 4 10 9 10 6 0 13
-4 16 -10z m-441 -16 c22 -9 10 -24 -20 -24 -35 0 -31 -33 6 -60 21 -15 30
-30 30 -50 0 -35 -25 -62 -53 -58 -31 5 -33 28 -3 28 44 0 45 29 3 63 -40 32
-47 60 -20 89 17 19 31 22 57 12z m76 -39 c0 -29 4 -36 26 -41 31 -8 41 2 46
41 3 33 24 33 21 0 -10 -118 -16 -155 -24 -155 -5 0 -9 20 -9 45 0 43 -1 45
-30 45 -28 0 -30 -2 -30 -39 0 -40 -13 -61 -25 -41 -9 15 6 180 16 180 5 0 9
-16 9 -35z m213 -52 c10 -97 9 -139 -2 -127 -5 5 -11 20 -13 34 -2 18 -10 26
-29 28 -21 2 -28 -2 -33 -22 -3 -15 -11 -26 -17 -26 -15 0 -6 33 30 114 39 87
56 86 64 -1z m144 25 c19 -15 16 -55 -4 -75 -12 -12 -18 -33 -18 -60 0 -24 -4
-43 -10 -43 -5 0 -10 16 -10 35 -1 49 -21 67 -35 31 -5 -15 -10 -34 -10 -42 0
-8 -4 -14 -10 -14 -14 0 -13 17 5 97 23 98 21 96 53 88 15 -4 33 -11 39 -17z
m369 -23 c4 -8 10 -13 14 -10 12 7 40 -5 40 -17 0 -6 -7 -7 -16 -4 -12 5 -14
1 -8 -16 5 -16 3 -20 -10 -15 -18 7 -31 -8 -15 -18 6 -4 23 5 38 19 15 14 29
26 32 26 3 0 6 -20 6 -45 0 -60 16 -76 42 -44 21 26 10 43 -21 33 -10 -3 -18
-1 -18 5 0 15 40 25 53 12 6 -6 11 -21 13 -33 1 -13 3 -25 3 -27 1 -2 8 2 16
9 29 24 25 4 -6 -31 -25 -28 -29 -30 -24 -11 7 23 -4 29 -21 12 -13 -13 -75
30 -69 49 4 10 -1 12 -20 7 -17 -4 -31 0 -45 14 -11 11 -22 20 -25 19 -22 -3
-25 10 -9 44 18 38 40 48 50 22z m-906 -10 c0 -8 -4 -15 -9 -15 -13 0 -22 16
-14 24 11 11 23 6 23 -9z m617 3 c-13 -36 -18 -58 -12 -58 3 0 22 12 41 27 23
17 38 23 45 16 6 -6 -3 -18 -29 -35 l-38 -26 4 -63 c5 -73 -10 -72 -26 1 l-9
45 -17 -37 c-9 -21 -21 -38 -26 -38 -13 0 -13 1 11 72 35 102 38 108 50 108 6
0 9 -6 6 -12z m163 -58 c11 -11 20 -27 20 -35 0 -8 -9 -24 -20 -35 -11 -11
-20 -29 -20 -41 0 -52 -51 -78 -93 -46 -15 11 -13 19 20 95 38 89 55 100 93
62z m126 -77 c-38 -137 -51 -173 -64 -173 -8 0 -12 6 -9 13 18 48 18 55 -3 62
-14 4 -28 1 -39 -9 -17 -16 -41 -22 -41 -10 0 3 28 35 62 70 60 62 105 84 94
47z m-896 -70 c23 -26 49 -60 58 -75 13 -23 23 -28 54 -28 20 0 40 5 43 10 4
7 12 7 25 0 10 -5 63 -10 118 -10 91 0 101 2 126 25 17 16 26 34 26 55 0 57
28 34 59 -51 21 -55 22 -56 89 -79 131 -45 318 -156 309 -183 -2 -7 -21 -17
-43 -22 -21 -6 -50 -16 -63 -24 -24 -13 -52 -11 -143 11 -40 10 -53 9 -86 -6
-41 -18 -101 -24 -122 -11 -8 5 -3 14 15 29 33 27 29 31 -73 71 -40 16 -75 32
-78 37 -3 4 -25 8 -50 8 -32 0 -44 4 -44 14 0 22 -40 46 -76 46 -20 0 -34 6
-38 16 -7 19 -46 15 -115 -10 -38 -15 -101 -14 -101 0 0 3 16 19 35 37 40 37
43 57 15 122 -11 26 -20 55 -20 66 0 28 27 11 80 -48z m956 1 l-6 -46 36 23
c26 16 38 19 47 10 13 -13 15 -10 -44 -39 -26 -12 -57 -38 -70 -57 -13 -19
-27 -35 -31 -35 -14 0 -9 21 11 49 11 15 22 45 26 66 10 61 15 75 27 75 7 0 9
-16 4 -46z m62 -122 c3 -9 -2 -13 -14 -10 -9 1 -19 9 -22 16 -3 9 2 13 14 10
9 -1 19 -9 22 -16z m-1101 -188 c-3 -3 -12 -4 -19 -1 -8 3 -5 6 6 6 11 1 17
-2 13 -5z m48 -14 c13 -6 15 -9 5 -9 -8 0 -22 4 -30 9 -18 12 -2 12 25 0z m35
-40 c18 -12 2 -12 -25 0 -13 6 -15 9 -5 9 8 0 22 -4 30 -9z m131 -11 c39 -12
68 -23 66 -25 -2 -3 -37 6 -78 20 -92 30 -82 34 12 5z m-236 -14 c39 -17 21
-18 -25 0 -19 7 -28 14 -20 14 8 0 29 -6 45 -14z m110 -5 c13 -6 15 -9 5 -9
-8 0 -22 4 -30 9 -18 12 -2 12 25 0z m-120 -20 c13 -6 15 -9 5 -9 -8 0 -22 4
-30 9 -18 12 -2 12 25 0z m284 -50 c0 -10 -3 -8 -9 5 -12 27 -12 43 0 25 5 -8
9 -22 9 -30z m186 20 c28 -10 43 -18 35 -18 -8 0 -37 8 -65 18 -27 10 -43 18
-35 18 8 0 38 -8 65 -18z m-160 -9 c-9 -28 14 -36 24 -9 7 15 10 17 10 7 1
-21 -25 -43 -39 -34 -11 7 -14 38 -3 48 11 12 15 8 8 -12z m71 -18 c-11 -27 6
-37 20 -12 8 15 13 18 13 9 1 -8 -3 -22 -9 -30 -8 -12 -11 -12 -28 3 -10 9
-22 14 -27 10 -4 -5 -6 -3 -3 2 3 6 8 18 11 28 4 10 12 15 18 12 6 -4 8 -14 5
-22z m89 -27 c0 -13 -2 -27 -5 -30 -5 -4 -6 43 -1 52 4 8 7 -1 6 -22z m210
-11 c55 -19 85 -32 67 -29 -42 7 -203 62 -182 63 8 0 60 -16 115 -34z m-179
10 c-3 -9 0 -15 8 -15 8 0 17 6 19 13 4 8 5 7 6 -3 0 -8 -4 -24 -9 -35 -7 -17
-9 -17 -9 -2 -1 20 -17 23 -24 5 -4 -8 -6 -7 -6 4 -1 19 9 48 16 48 3 0 3 -7
-1 -15z m-557 -19 c18 -19 20 -26 9 -37 -20 -22 -20 -40 -1 -54 10 -7 15 -16
12 -19 -7 -8 -109 5 -109 14 0 4 11 24 25 44 13 20 20 36 15 36 -20 0 1 39 21
40 3 0 16 -11 28 -24z m612 -5 c-6 -10 -7 -21 -4 -25 3 -3 1 -6 -5 -6 -16 0
-15 23 0 38 17 17 20 15 9 -7z m50 -10 c0 10 2 10 6 1 2 -6 9 -10 14 -6 5 3 9
0 9 -5 0 -6 -7 -11 -15 -11 -8 0 -15 -6 -16 -12 0 -10 -2 -10 -6 0 -2 6 -8 10
-11 8 -4 -2 -7 7 -7 20 0 22 1 23 13 7 9 -13 12 -14 13 -2z m136 -27 c-3 -3
-12 -4 -19 -1 -8 3 -5 6 6 6 11 1 17 -2 13 -5z m-177 -29 c41 -14 60 -22 41
-19 -38 7 -142 42 -126 43 6 0 44 -10 85 -24z m325 15 c13 -5 14 -9 5 -9 -8 0
-24 4 -35 9 -13 5 -14 9 -5 9 8 0 24 -4 35 -9z m-78 -6 c-3 -3 -12 -4 -19 -1
-8 3 -5 6 6 6 11 1 17 -2 13 -5z m133 -14 c8 -5 11 -10 5 -10 -5 0 -17 5 -25
10 -8 5 -10 10 -5 10 6 0 17 -5 25 -10z m-188 -53 c37 -11 66 -22 64 -25 -5
-4 -176 49 -176 55 0 5 12 2 112 -30z m185 27 c-3 -3 -12 -4 -19 -1 -8 3 -5 6
6 6 11 1 17 -2 13 -5z m-27 -19 c19 -7 28 -13 20 -13 -8 0 -31 6 -50 13 -19 7
-28 13 -20 13 8 0 31 -6 50 -13z m-93 -1 c-3 -3 -12 -4 -19 -1 -8 3 -5 6 6 6
11 1 17 -2 13 -5z m78 -24 c13 -6 15 -9 5 -9 -8 0 -22 4 -30 9 -18 12 -2 12
25 0z m10 -30 c13 -5 14 -9 5 -9 -8 0 -24 4 -35 9 -13 5 -14 9 -5 9 8 0 24 -4
35 -9z"/>
<path d="M7817 3333 c-4 -3 -7 -17 -7 -30 0 -33 24 -24 28 10 3 26 -7 35 -21
20z"/>
<path d="M7880 3323 c0 -15 18 -35 23 -27 3 5 -1 15 -9 22 -8 7 -14 9 -14 5z"/>
<path d="M8270 3193 c0 -15 19 -37 26 -31 3 4 -1 14 -10 23 -9 9 -16 13 -16 8z"/>
<path d="M8315 3179 c-4 -6 -5 -12 -2 -15 2 -3 7 2 10 11 7 17 1 20 -8 4z"/>
<path d="M7883 3151 c-7 -20 -8 -33 -1 -37 15 -9 20 1 16 36 l-3 33 -12 -32z"/>
<path d="M8015 3155 c-3 -8 -7 -22 -10 -30 -3 -10 3 -15 19 -15 26 0 39 21 30
45 -4 8 -13 15 -20 15 -8 0 -17 -7 -19 -15z"/>
<path d="M8261 3061 c-16 -28 -14 -33 12 -29 14 2 22 10 22 22 0 27 -21 31
-34 7z"/>
<path d="M8221 2980 c-8 -25 -8 -32 5 -37 24 -9 51 23 38 44 -17 28 -31 26
-43 -7z"/>
<path d="M8376 2965 c-14 -14 -15 -20 -4 -26 8 -5 16 -2 21 7 14 25 3 38 -17
19z"/>
<path d="M7326 2374 c-9 -24 -7 -27 9 -10 17 17 19 26 6 26 -5 0 -12 -7 -15
-16z"/>
<path d="M7721 1816 c-13 -125 -22 -229 -19 -231 6 -6 51 430 46 445 -2 7 -14
-90 -27 -214z"/>
<path d="M7053 2003 c-20 -7 -15 -41 7 -55 24 -15 27 -48 4 -48 -10 0 -14 6
-10 15 3 8 1 15 -4 15 -12 0 -13 -37 -2 -44 16 -10 51 6 58 27 5 15 -1 27 -20
43 -26 23 -34 44 -17 44 5 0 12 -6 14 -12 3 -8 6 -6 6 5 1 17 -12 20 -36 10z"/>
<path d="M7168 1984 c-5 -4 -8 -18 -8 -30 0 -13 -4 -26 -10 -29 -6 -4 -10 7
-10 24 0 17 -4 31 -10 31 -5 0 -10 -18 -10 -39 l0 -40 38 5 c56 8 62 12 62 33
0 11 5 23 11 27 8 4 9 -3 4 -26 -5 -25 -4 -31 6 -28 8 3 16 13 17 24 7 34 24
42 20 9 -3 -26 0 -30 24 -33 21 -2 30 3 43 25 l16 28 -6 -32 c-4 -21 -3 -33 4
-33 6 0 11 4 11 8 0 5 7 17 15 28 14 18 15 17 12 -14 -2 -29 2 -35 31 -47 18
-8 30 -10 27 -5 -8 14 4 50 16 50 6 0 7 -5 3 -11 -4 -7 -1 -10 6 -7 21 7 24
27 5 34 -10 4 -26 -2 -40 -16 -29 -27 -42 -22 -25 9 9 18 8 22 -12 30 -64 24
-66 23 -85 -11 l-17 -33 -6 34 c-5 32 -8 34 -47 38 -39 4 -43 2 -49 -24 -11
-47 -19 -50 -24 -10 -3 22 -8 35 -12 31z"/>
<path d="M7494 1889 c-33 -34 -25 -52 9 -20 15 13 30 19 40 15 23 -8 21 8 -2
23 -16 10 -23 7 -47 -18z"/>
<path d="M7693 1530 c0 -25 2 -35 4 -22 2 12 2 32 0 45 -2 12 -4 2 -4 -23z"/>
<path d="M7042 1518 c-7 -7 -12 -17 -12 -22 0 -6 5 -4 10 4 13 20 13 -1 0 -34
-5 -15 -6 -26 0 -26 5 0 12 9 15 20 3 11 11 20 16 20 6 0 7 -9 4 -20 -3 -11
-2 -20 3 -20 10 0 34 71 27 79 -3 2 -12 -4 -20 -15 -14 -18 -14 -18 -15 4 0
24 -10 28 -28 10z"/>
<path d="M7166 1488 c-5 -18 -8 -20 -15 -9 -11 17 -39 8 -48 -14 -10 -28 14
-41 37 -20 18 16 20 17 14 2 -4 -12 -1 -17 12 -18 11 -1 30 -3 44 -4 42 -6
114 -13 128 -14 6 -1 12 -8 12 -16 0 -8 6 -15 14 -15 15 0 42 67 32 78 -4 3
-9 -4 -13 -16 -8 -31 -21 -27 -15 4 3 19 1 25 -7 20 -6 -4 -11 -13 -11 -21 0
-8 -5 -17 -10 -20 -7 -4 -9 2 -4 19 5 21 3 26 -14 26 -11 0 -27 -10 -36 -22
l-17 -23 7 25 c4 14 9 31 11 38 3 6 0 12 -6 12 -6 0 -11 -4 -11 -10 0 -5 -7
-10 -15 -10 -8 0 -20 -9 -27 -20 -17 -26 -28 -26 -20 2 3 14 2 19 -6 14 -7 -4
-12 -14 -12 -22 0 -8 -5 -14 -11 -14 -9 0 -7 16 8 58 3 6 1 12 -5 12 -5 0 -12
-10 -16 -22z m-35 -41 c-8 -8 -11 -7 -11 4 0 20 13 34 18 19 3 -7 -1 -17 -7
-23z m120 -4 c-8 -15 -10 -15 -11 -2 0 17 10 32 18 25 2 -3 -1 -13 -7 -23z
m60 -16 c-8 -8 -11 -7 -11 4 0 20 13 34 18 19 3 -7 -1 -17 -7 -23z"/>
<path d="M7666 1310 c-10 -95 -20 -179 -23 -186 -11 -30 -49 -32 -263 -8 -118
13 -228 23 -245 23 -16 -1 82 -14 220 -29 255 -29 275 -29 294 8 10 20 44 322
39 349 -2 10 -12 -61 -22 -157z"/>
<path d="M7428 1453 c0 -5 -2 -15 -2 -23 -1 -8 -8 -14 -15 -12 -7 1 -10 -2 -6
-8 14 -22 35 -10 35 20 0 27 -8 42 -12 23z"/>
<path d="M5535 3268 c-71 -84 48 -186 126 -109 32 33 36 58 14 100 -16 33 -33
41 -80 41 -25 0 -40 -8 -60 -32z m109 1 c54 -42 25 -119 -45 -119 -66 0 -92
68 -44 115 30 30 54 31 89 4z"/>
<path d="M6555 3275 c-52 -51 -14 -144 58 -145 39 0 64 15 82 51 44 84 -73
162 -140 94z m118 -17 c37 -44 4 -108 -55 -108 -42 0 -68 25 -68 66 0 66 79
94 123 42z"/>
<path d="M4041 3240 c-117 -31 -178 -67 -267 -155 -61 -60 -90 -98 -118 -155
-148 -303 -25 -659 276 -800 232 -109 507 -58 682 125 100 105 151 222 162
370 16 223 -95 434 -288 550 -127 76 -309 103 -447 65z m323 -49 c215 -76 358
-264 373 -491 7 -109 -8 -179 -59 -282 -82 -163 -235 -274 -415 -300 -403 -59
-737 342 -603 722 70 199 226 334 430 374 56 11 216 -3 274 -23z"/>
<path d="M4065 3186 c-184 -46 -329 -182 -391 -366 -29 -86 -24 -244 10 -335
65 -172 198 -291 372 -335 94 -23 146 -25 238 -5 265 56 449 305 422 571 -13
130 -64 233 -162 330 -129 126 -322 182 -489 140z m194 -15 c15 -10 6 -51 -12
-51 -7 0 -3 -7 7 -15 19 -14 18 -15 -12 -15 -37 0 -40 10 -12 35 11 10 20 22
20 27 0 5 -9 6 -20 3 -19 -6 -27 5 -13 18 9 9 25 8 42 -2z m-149 -29 c0 -15 5
-33 12 -40 9 -9 9 -12 0 -12 -19 0 -20 0 -58 -16 -30 -13 -38 -13 -45 -2 -8
12 -13 5 -11 -14 2 -9 -27 -19 -31 -10 -1 4 0 27 3 51 l5 44 25 -26 c34 -36
44 -34 37 8 -4 24 -2 35 6 35 7 0 14 -12 15 -26 2 -32 11 -46 22 -39 5 3 4 20
-1 38 -11 40 -12 37 6 37 10 0 15 -10 15 -28z m229 4 c8 -9 8 -21 2 -39 -12
-30 -24 -39 -44 -31 -24 9 -29 35 -12 60 17 27 37 31 54 10z m50 -50 c-11 -23
-10 -29 2 -37 23 -14 44 -12 30 5 -12 14 -5 46 9 46 17 0 40 -13 40 -22 0 -5
-10 -6 -22 -2 -20 6 -21 5 -9 -9 7 -9 11 -24 7 -32 -6 -17 -56 -21 -56 -5 0 6
-6 10 -12 10 -7 0 -19 4 -27 9 -11 7 -9 13 10 32 16 16 19 24 10 27 -11 4 -11
6 0 13 22 13 31 -6 18 -35z m-442 -28 c6 -24 10 -44 8 -46 -2 -2 -16 4 -31 14
l-27 18 12 -23 c18 -32 0 -47 -24 -21 -10 11 -24 20 -32 20 -16 0 -17 16 -2
25 6 4 17 -1 25 -11 13 -18 14 -17 8 9 -7 30 -3 32 27 16 18 -9 19 -8 10 9
-10 18 -6 32 9 32 3 0 11 -19 17 -42z m343 -5 c76 -18 186 -95 229 -160 31
-47 37 -63 23 -63 -4 0 -16 16 -27 36 -42 78 -153 153 -261 175 -157 32 -343
-60 -417 -208 -101 -198 -14 -442 190 -535 59 -27 80 -31 159 -32 83 -1 95 2
159 33 118 59 198 153 220 261 11 55 27 73 22 24 -10 -92 -103 -227 -192 -279
-104 -61 -251 -71 -368 -26 -80 32 -165 112 -208 198 -33 65 -34 73 -34 178 0
103 2 114 33 180 81 174 278 265 472 218z m-105 -62 c67 -25 95 -52 95 -91 l0
-31 31 17 c19 9 41 13 56 9 31 -7 131 -92 139 -117 3 -11 15 -18 29 -18 26 0
38 -13 42 -46 4 -24 -27 -37 -64 -28 -17 5 -23 -1 -32 -29 -7 -20 -18 -41 -26
-47 -11 -9 -11 -17 -3 -36 8 -18 8 -34 0 -63 -7 -21 -12 -52 -12 -68 0 -35
-12 -47 -55 -58 -70 -16 -113 -17 -137 -1 -23 15 -26 15 -48 -9 -26 -28 -61
-41 -137 -50 -51 -7 -53 -6 -64 22 -6 15 -17 41 -25 56 -19 39 -18 76 5 113
l18 30 -57 -4 c-58 -4 -59 -4 -76 29 -9 19 -25 45 -35 58 -27 34 -24 76 9 110
15 16 35 39 45 51 16 19 26 22 77 18 l58 -4 -6 39 c-4 29 0 45 17 67 11 16 21
33 21 38 0 20 43 62 63 62 12 0 44 -8 72 -19z m-322 -9 c15 -2 27 -7 27 -11 0
-15 -23 -29 -39 -24 -13 4 -14 3 -1 -5 12 -9 11 -14 -5 -34 -11 -13 -21 -25
-22 -27 -1 -2 -9 1 -16 7 -8 7 -17 9 -20 5 -12 -11 -8 -23 8 -23 17 0 20 -16
4 -25 -5 -4 -18 0 -28 9 -10 9 -25 16 -34 16 -21 0 -22 14 -2 30 8 7 15 18 15
26 0 21 19 26 36 10 15 -16 34 -21 34 -11 0 4 -7 19 -15 34 -16 31 -10 45 14
35 9 -4 28 -9 44 -12z m797 -198 c11 -12 10 -18 -3 -32 -16 -15 -18 -15 -34 0
-13 14 -14 20 -3 32 7 9 16 16 20 16 4 0 13 -7 20 -16z m-907 -206 c7 -21 -4
-38 -23 -38 -23 0 -34 16 -26 35 7 18 43 20 49 3z m860 -127 c31 -16 37 -36 8
-26 -23 7 -38 -23 -16 -31 8 -4 12 -10 9 -15 -3 -5 -17 0 -31 11 -35 27 -49
12 -26 -28 22 -39 17 -44 -30 -30 -36 11 -47 36 -13 30 10 -2 16 2 14 10 -1 7
4 23 11 36 10 19 15 21 27 12 11 -10 15 -9 21 6 4 10 2 19 -5 22 -7 2 -12 8
-12 14 0 5 3 8 8 6 4 -2 19 -10 35 -17z m-99 -156 c11 -8 17 -18 13 -22 -4 -3
-16 2 -28 13 -20 18 -20 18 -14 -9 8 -30 4 -32 -26 -17 -21 12 -26 1 -7 -18 8
-8 9 -15 2 -22 -7 -7 -15 2 -23 31 -15 48 -9 59 19 34 20 -18 20 -18 14 15 -6
30 -5 31 12 21 10 -6 28 -17 38 -26z m-522 -22 c41 -18 47 -27 22 -37 -10 -4
-14 -14 -11 -26 4 -15 0 -20 -13 -20 -16 0 -17 3 -7 31 10 27 9 32 -7 44 -25
19 -39 9 -24 -15 10 -15 10 -22 1 -31 -13 -13 -43 -5 -43 10 0 6 7 8 15 5 12
-5 14 0 9 25 -8 37 2 39 58 14z m404 -38 c2 -52 -16 -60 -42 -20 -9 14 -20 25
-25 25 -12 0 -11 -47 1 -55 12 -7 4 -25 -11 -25 -5 0 -9 9 -9 21 0 11 -4 29
-10 39 -8 15 -5 20 18 28 24 8 31 6 46 -12 l17 -21 -5 27 c-4 25 0 38 13 38 3
0 7 -20 7 -45z m-302 -10 c9 -26 -15 -66 -38 -63 -25 4 -34 42 -16 64 16 18
46 18 54 -1z m186 -14 c0 -16 3 -36 6 -45 4 -10 1 -16 -10 -16 -9 0 -13 6 -10
13 3 8 0 25 -5 39 -10 25 -6 38 11 38 4 0 8 -13 8 -29z m-120 11 c0 -5 -9 -17
-20 -27 -21 -19 -17 -40 6 -31 8 3 14 1 14 -4 0 -6 -11 -10 -25 -10 -29 0 -35
30 -9 51 14 12 14 14 -3 20 -14 6 -13 8 10 8 15 1 27 -3 27 -7z"/>
<path d="M4300 3115 c0 -14 5 -25 10 -25 6 0 10 4 10 9 0 5 3 16 6 25 4 11 1
16 -10 16 -10 0 -16 -9 -16 -25z"/>
<path d="M4098 2988 c-27 -23 -68 -106 -68 -138 0 -23 10 -40 38 -65 44 -41
39 -44 -24 -10 -32 17 -63 25 -96 25 -45 0 -50 -3 -69 -34 -11 -19 -26 -37
-34 -40 -21 -8 -18 -60 4 -80 10 -9 21 -30 25 -46 8 -42 44 -49 107 -20 27 13
51 21 54 18 4 -3 -8 -27 -24 -54 -34 -53 -38 -88 -17 -131 8 -15 17 -36 20
-46 5 -16 13 -18 63 -11 73 8 109 26 128 65 l16 30 20 -25 c15 -20 30 -26 57
-26 54 0 117 25 120 47 1 10 7 41 13 69 10 44 9 55 -4 74 -25 36 -64 57 -97
52 l-30 -4 40 -29 c22 -16 40 -33 40 -39 0 -5 -25 8 -57 30 -31 22 -64 40 -74
40 -19 0 -33 -26 -18 -35 12 -8 69 -107 69 -120 0 -12 -39 36 -40 48 0 17 -62
97 -74 97 -10 0 -15 -23 -18 -82 -3 -53 -11 -94 -22 -113 -9 -17 -15 -21 -12
-10 27 107 34 185 17 185 -5 0 -16 -30 -26 -67 -15 -63 -44 -131 -45 -107 0 6
11 44 25 84 51 149 23 179 -121 130 -55 -18 -58 -18 -37 -1 12 10 50 24 85 32
l63 13 -40 8 c-22 4 -59 7 -82 7 -25 1 -43 6 -43 12 0 11 108 7 164 -6 34 -8
48 7 36 39 -13 35 -13 133 0 141 6 4 10 -21 11 -67 l1 -73 18 59 c10 32 24 64
30 70 6 6 4 -9 -5 -33 -20 -59 -19 -104 4 -125 17 -15 22 -16 53 -3 19 8 53
26 76 41 23 14 45 26 48 26 17 0 -30 -39 -66 -55 -57 -26 -42 -30 21 -6 54 21
77 22 39 1 -12 -6 -45 -19 -73 -28 l-52 -16 45 -7 c49 -7 127 3 168 23 47 23
47 94 0 119 -12 7 -31 23 -41 36 -30 38 -81 32 -126 -15 -20 -20 -45 -53 -55
-72 -15 -27 -20 -31 -24 -17 -2 10 10 39 27 66 35 53 40 100 14 123 -21 18
-102 58 -118 58 -6 0 -18 -6 -27 -12z"/>
<path d="M3750 2910 c0 -5 5 -10 10 -10 6 0 10 5 10 10 0 6 -4 10 -10 10 -5 0
-10 -4 -10 -10z"/>
<path d="M4057 2233 c-4 -3 -7 -17 -7 -31 0 -21 2 -22 15 -12 8 7 15 21 15 31
0 19 -11 25 -23 12z"/>
<path d="M5815 2525 c-104 -19 -228 -41 -275 -49 -47 -9 -150 -27 -230 -41
-80 -14 -157 -28 -171 -31 -25 -5 -26 -7 -18 -52 197 -1154 228 -1334 234
-1340 3 -4 50 1 103 11 182 31 377 66 497 87 66 12 160 28 210 36 49 8 93 18
97 22 3 4 -2 54 -13 112 -11 58 -44 251 -75 430 -31 179 -72 413 -90 520 -19
107 -39 225 -45 263 -7 37 -17 67 -23 66 -6 0 -96 -16 -201 -34z m189 -3 c3
-5 28 -143 56 -308 78 -454 105 -611 141 -821 18 -106 30 -195 26 -199 -6 -6
-78 -20 -537 -100 -302 -53 -312 -55 -317 -50 -4 4 -101 547 -189 1059 -25
148 -43 271 -40 274 3 3 160 32 348 64 189 33 377 65 418 73 41 8 78 14 82 15
4 1 9 -3 12 -7z"/>
<path d="M5915 2494 c-9 -3 -241 -45 -335 -60 -19 -3 -100 -17 -180 -31 -80
-13 -164 -27 -188 -30 -23 -3 -44 -8 -46 -12 -2 -3 4 -51 13 -106 16 -97 18
-100 41 -97 14 2 140 23 280 47 140 24 315 55 389 67 l133 23 -6 52 c-3 29
-11 75 -17 103 -10 48 -12 50 -42 49 -18 0 -36 -2 -42 -5z m25 -84 c0 -5 -7
-10 -16 -10 -8 0 -12 -5 -9 -10 4 -6 11 -8 16 -5 5 4 9 1 9 -4 0 -6 -4 -11
-10 -11 -5 0 -10 -5 -10 -11 0 -6 7 -9 15 -6 8 4 17 2 20 -3 4 -6 0 -10 -9
-10 -8 0 -21 -3 -29 -6 -11 -4 -16 5 -19 35 -2 30 0 41 12 45 26 7 30 6 30 -4z
m-75 -20 c-3 -5 -12 -7 -20 -3 -11 4 -15 -2 -15 -21 0 -16 6 -26 15 -26 9 0
12 6 9 15 -4 9 0 15 10 15 9 0 16 -8 16 -20 0 -25 -48 -40 -61 -19 -10 17 -12
53 -2 62 10 11 55 8 48 -3z m-85 -32 c24 -40 25 -48 5 -48 -8 0 -15 5 -15 10
0 6 -4 10 -10 10 -5 0 -10 -7 -10 -15 0 -8 -7 -15 -14 -15 -12 0 -13 6 -5 33
6 17 12 38 15 45 5 19 13 15 34 -20z m-81 -4 c-5 -15 -7 -35 -4 -45 4 -13 1
-19 -9 -19 -9 0 -16 8 -16 19 0 10 -7 24 -15 31 -8 7 -15 16 -15 21 0 17 30 9
31 -8 0 -14 2 -13 9 5 14 32 32 29 19 -4z m-66 -14 c9 -35 -3 -60 -29 -60 -31
0 -53 42 -34 65 18 22 57 19 63 -5z m-92 -27 c-8 -47 -28 -49 -54 -5 -15 26
-16 32 -4 32 8 0 18 -10 22 -22 8 -22 8 -22 12 5 2 15 10 27 17 27 9 0 11 -11
7 -37z m-112 -22 c12 -16 21 -32 21 -35 0 -11 -28 -6 -34 7 -3 8 -8 7 -16 -5
-19 -31 -28 -19 -18 22 6 22 14 40 19 40 4 0 17 -13 28 -29z m-91 12 c-19 -5
-25 -23 -8 -23 5 0 7 -7 4 -15 -4 -10 0 -15 11 -15 9 0 13 -4 10 -10 -15 -24
-41 -9 -52 30 l-10 40 31 -1 c17 -1 23 -3 14 -6z m-58 -14 c0 -6 -7 -9 -15 -5
-8 3 -15 2 -15 -3 0 -5 9 -11 21 -14 28 -7 21 -41 -9 -45 -12 -2 -22 2 -22 8
0 6 4 9 9 5 5 -3 12 -1 15 4 3 5 -3 11 -14 14 -31 8 -27 47 5 47 14 0 25 -5
25 -11z"/>
<path d="M5582 2317 c4 -30 28 -34 28 -4 0 15 -6 24 -15 24 -10 0 -15 -8 -13
-20z"/>
<path d="M5925 2259 c-55 -10 -221 -39 -370 -64 -148 -26 -288 -50 -310 -54
-31 -5 -40 -11 -39 -26 0 -11 29 -189 64 -397 l64 -376 75 5 c42 3 78 7 80 9
2 1 -6 16 -18 32 l-21 30 48 11 c26 5 86 18 135 28 79 16 87 19 87 40 0 14 -6
23 -15 23 -8 0 -15 -6 -15 -14 0 -8 -4 -17 -9 -20 -5 -3 -8 6 -8 19 0 18 5 25
19 25 17 0 19 5 14 53 -10 96 -17 117 -37 117 -11 0 -19 -4 -19 -10 0 -5 -7
-10 -16 -10 -14 0 -14 3 -4 15 7 8 24 15 38 15 24 0 24 2 18 48 -4 26 -9 58
-12 72 -3 14 -7 36 -8 50 -2 14 -4 31 -4 39 -3 25 -15 3 -19 -34 -2 -24 0 -34
7 -30 5 3 10 1 10 -4 0 -6 -6 -11 -13 -11 -13 0 -47 -99 -47 -135 0 -8 -4 -23
-9 -33 -5 -9 -22 -51 -37 -92 -16 -41 -30 -78 -32 -82 -2 -3 22 0 53 8 31 8
64 13 73 11 10 -2 -3 -8 -28 -14 -25 -6 -60 -16 -77 -21 -48 -15 -50 0 -13 79
18 39 39 94 47 122 23 82 51 198 57 242 4 22 9 55 12 74 6 29 4 33 -12 28 -50
-14 -104 -18 -123 -7 -26 13 -27 30 -2 30 10 0 35 7 54 15 58 24 67 17 12 -9
l-50 -24 35 -1 c55 -1 80 9 81 33 0 11 7 0 15 -26 11 -36 20 -48 43 -56 33
-12 42 -7 34 16 -4 10 -2 13 6 8 6 -4 9 -16 6 -26 -8 -24 83 -80 96 -59 7 12
9 11 10 -1 1 -8 1 -18 0 -22 0 -4 7 -12 18 -17 25 -14 93 -107 113 -156 23
-55 38 -114 38 -152 0 -24 5 -32 20 -35 18 -3 17 -6 -11 -48 -16 -25 -48 -64
-70 -86 -44 -45 -54 -48 -249 -79 -160 -25 -167 -25 -185 -5 -14 16 -30 19
-95 17 -43 -1 -82 -5 -85 -9 -6 -6 4 -79 20 -148 2 -8 6 -39 10 -67 8 -59 8
-58 87 -42 114 23 108 19 63 40 -49 22 -34 25 26 4 34 -12 44 -13 51 -3 6 9
10 10 16 2 8 -13 159 7 171 22 3 5 21 17 39 27 37 19 81 22 127 8 24 -6 170
10 252 29 1 0 1 17 -1 38 -2 20 -4 45 -5 55 -2 26 -23 21 -87 -23 -33 -22 -70
-40 -84 -39 -22 1 -21 2 7 9 17 4 54 24 81 44 27 20 55 36 61 36 17 0 13 60
-4 66 -8 3 -39 -8 -68 -25 -30 -17 -58 -31 -63 -31 -14 0 85 59 111 66 41 10
30 63 -14 65 l-26 1 25 7 c31 9 34 -17 -50 461 -10 58 -26 150 -35 205 -27
157 -13 144 -130 124z m-290 -89 c-3 -5 -10 -10 -16 -10 -5 0 -9 5 -9 10 0 6
7 10 16 10 8 0 12 -4 9 -10z m95 -20 c0 -5 -4 -10 -10 -10 -5 0 -10 5 -10 10
0 6 5 10 10 10 6 0 10 -4 10 -10z m130 -90 c0 -5 -5 -10 -11 -10 -5 0 -7 5 -4
10 3 6 8 10 11 10 2 0 4 -4 4 -10z m-90 -20 c0 -5 -9 -10 -21 -10 -11 0 -17 5
-14 10 3 6 13 10 21 10 8 0 14 -4 14 -10z m35 -80 c3 -5 1 -10 -4 -10 -6 0
-11 5 -11 10 0 6 2 10 4 10 3 0 8 -4 11 -10z m-191 -15 c-4 -8 -8 -15 -10 -15
-2 0 -4 7 -4 15 0 8 4 15 10 15 5 0 7 -7 4 -15z m236 1 c0 -2 -7 -7 -16 -10
-8 -3 -12 -2 -9 4 6 10 25 14 25 6z m-353 -202 c-3 -3 -12 -4 -19 -1 -8 3 -5
6 6 6 11 1 17 -2 13 -5z m197 -167 c15 -24 -3 -35 -20 -13 -8 11 -14 24 -14
29 0 13 22 3 34 -16z m-357 -69 c-3 -8 -6 -5 -6 6 -1 11 2 17 5 13 3 -3 4 -12
1 -19z m74 -41 c-10 -9 -11 -8 -5 6 3 10 9 15 12 12 3 -3 0 -11 -7 -18z m677
-4 c-10 -2 -28 -2 -40 0 -13 2 -5 4 17 4 22 1 32 -1 23 -4z m-263 -159 c-57
-24 -88 -35 -73 -27 4 2 4 11 1 19 -3 8 0 14 7 14 6 0 8 -4 5 -10 -9 -14 -3
-13 46 10 24 11 51 20 59 20 8 0 -12 -12 -45 -26z m193 19 c-10 -2 -28 -2 -40
0 -13 2 -5 4 17 4 22 1 32 -1 23 -4z m-542 -54 c0 -17 -2 -18 -11 -6 -6 9 -24
17 -40 20 -25 3 -23 4 10 6 35 1 41 -2 41 -20z m41 5 c-3 -3 -12 -4 -19 -1 -8
3 -5 6 6 6 11 1 17 -2 13 -5z m38 -4 c3 -5 1 -10 -4 -10 -6 0 -11 5 -11 10 0
6 2 10 4 10 3 0 8 -4 11 -10z m83 -17 c-10 -2 -28 -2 -40 0 -13 2 -5 4 17 4
22 1 32 -1 23 -4z m59 1 c-3 -3 -12 -4 -19 -1 -8 3 -5 6 6 6 11 1 17 -2 13 -5z
m-137 -14 c0 -5 -4 -10 -10 -10 -5 0 -10 5 -10 10 0 6 5 10 10 10 6 0 10 -4
10 -10z m335 3 c-44 -6 -126 -34 -153 -51 -12 -8 -25 -12 -29 -9 -3 4 6 11 20
16 14 5 28 15 32 20 3 6 15 11 26 11 10 0 19 3 19 8 0 4 26 8 58 8 31 1 44 0
27 -3z m88 -10 c-7 -2 -19 -2 -25 0 -7 3 -2 5 12 5 14 0 19 -2 13 -5z m-498
-28 c-25 -9 -107 -12 -94 -4 8 5 34 8 59 8 25 0 41 -2 35 -4z m42 -11 c-3 -3
-12 -4 -19 -1 -8 3 -5 6 6 6 11 1 17 -2 13 -5z m70 -20 c-3 -3 -12 -4 -19 -1
-8 3 -5 6 6 6 11 1 17 -2 13 -5z m66 -11 c-7 -2 -21 -2 -30 0 -10 3 -4 5 12 5
17 0 24 -2 18 -5z"/>
<path d="M5680 1965 c0 -2 13 -31 30 -66 16 -35 35 -88 41 -118 6 -31 13 -63
16 -71 7 -23 9 -180 2 -180 -4 0 -9 -9 -12 -20 -3 -11 -1 -20 4 -20 5 0 9 6 9
14 0 8 8 14 18 14 9 0 37 7 61 16 24 9 68 16 97 16 l54 0 0 38 c0 39 -20 114
-41 154 -24 46 -100 127 -151 161 -49 32 -128 71 -128 62z m80 -49 c0 -2 -7
-6 -15 -10 -8 -3 -15 -1 -15 4 0 6 7 10 15 10 8 0 15 -2 15 -4z m150 -155 c0
-11 -4 -23 -10 -26 -6 -4 -10 5 -10 19 0 14 5 26 10 26 6 0 10 -9 10 -19z
m-90 -11 c0 -5 -2 -10 -4 -10 -3 0 -8 5 -11 10 -3 6 -1 10 4 10 6 0 11 -4 11
-10z m60 -70 c0 -5 -4 -10 -10 -10 -5 0 -10 5 -10 10 0 6 5 10 10 10 6 0 10
-4 10 -10z"/>
<path d="M5686 1880 c25 -170 42 -306 43 -345 1 -14 4 -16 12 -8 14 14 24 135
14 160 -4 10 -9 32 -11 50 -1 17 -13 56 -24 85 -38 93 -40 96 -34 58z"/>
<path d="M5843 1517 c-29 -13 -56 -26 -60 -31 -17 -17 193 27 212 45 20 19
-100 8 -152 -14z"/>
<path d="M5788 1463 c6 -2 18 -2 25 0 6 3 1 5 -13 5 -14 0 -19 -2 -12 -5z"/>
<path d="M5668 1443 c6 -2 18 -2 25 0 6 3 1 5 -13 5 -14 0 -19 -2 -12 -5z"/>
<path d="M5611 1424 c0 -11 3 -14 6 -6 3 7 2 16 -1 19 -3 4 -6 -2 -5 -13z"/>
<path d="M5826 1432 c-3 -5 1 -9 9 -9 8 0 15 4 15 9 0 4 -4 8 -9 8 -6 0 -12
-4 -15 -8z"/>
<path d="M5910 1418 c0 -11 12 -10 30 2 12 7 10 9 -8 7 -12 0 -22 -5 -22 -9z"/>
<path d="M5865 1410 c3 -5 8 -10 11 -10 2 0 4 5 4 10 0 6 -5 10 -11 10 -5 0
-7 -4 -4 -10z"/>
<path d="M5906 1390 c-11 -3 -15 -9 -10 -13 10 -6 42 9 34 16 -3 3 -14 1 -24
-3z"/>
<path d="M5843 1158 c-13 -6 -23 -14 -23 -18 0 -12 63 5 68 18 5 15 -15 15
-45 0z"/>
<path d="M5905 1160 c3 -5 13 -10 21 -10 8 0 14 5 14 10 0 6 -9 10 -21 10 -11
0 -17 -4 -14 -10z"/>
<path d="M8925 630 c-3 -5 -1 -10 4 -10 6 0 11 5 11 10 0 6 -2 10 -4 10 -3 0
-8 -4 -11 -10z"/>
<path d="M5193 4203 c11 -10 57 -15 57 -5 0 4 -14 9 -32 10 -18 2 -29 -1 -25
-5z"/>
<path d="M5333 4203 c9 -2 23 -2 30 0 6 3 -1 5 -18 5 -16 0 -22 -2 -12 -5z"/>
<path d="M5430 4200 c0 -5 5 -10 10 -10 6 0 10 5 10 10 0 6 -4 10 -10 10 -5 0
-10 -4 -10 -10z"/>
<path d="M6955 4190 c27 -12 35 -12 35 0 0 6 -12 10 -27 9 -25 0 -26 -1 -8 -9z"/>
<path d="M7051 4196 c10 -10 59 -14 59 -5 0 5 -14 9 -32 9 -17 0 -29 -2 -27
-4z"/>
<path d="M7140 4190 c-11 -7 0 -10 38 -10 33 0 51 4 47 10 -8 13 -65 13 -85 0z"/>
<path d="M3353 4147 c-3 -5 -21 -6 -40 -2 -19 3 -33 3 -30 -2 3 -4 -12 -7 -34
-7 -37 2 -50 -8 -29 -21 31 -19 -34 -105 -80 -105 -24 0 -30 6 -41 37 l-12 37
-30 -83 c-23 -62 -27 -85 -18 -90 9 -6 9 -14 0 -34 -9 -21 -9 -30 1 -42 9 -11
10 -33 5 -82 -15 -132 -17 -123 29 -123 23 0 48 5 56 10 8 5 10 10 5 10 -6 0
-10 16 -10 37 2 47 35 75 83 71 27 -2 39 -10 52 -33 10 -16 15 -33 13 -37 -5
-10 -2 -10 38 3 60 19 83 33 139 83 54 48 104 114 128 169 10 23 10 28 0 25
-7 -3 -19 -15 -25 -29 -9 -17 -13 -19 -13 -7 0 9 5 20 11 24 8 5 4 13 -11 24
-17 13 -24 30 -28 68 -4 46 -2 51 23 68 17 11 44 18 68 17 27 -2 37 1 30 8
-14 14 -91 21 -98 9 -8 -13 -52 -13 -60 0 -7 12 -114 9 -122 -3z"/>
<path d="M9026 4152 c6 -4 17 -18 24 -32 7 -14 15 -20 17 -13 7 19 -16 53 -35
53 -10 0 -13 -3 -6 -8z"/>
<path d="M8391 4130 c1 -14 4 -36 8 -50 7 -24 8 -24 14 -4 5 12 1 33 -8 50
-15 29 -15 29 -14 4z"/>
<path d="M3134 4132 c-19 -12 -34 -50 -28 -67 16 -42 75 -38 89 6 14 43 -28
84 -61 61z"/>
<path d="M8080 4110 c0 -12 8 -12 35 0 18 8 17 9 -7 9 -16 1 -28 -3 -28 -9z"/>
<path d="M3542 4094 c-32 -22 -29 -62 6 -75 47 -18 86 22 62 65 -15 30 -36 33
-68 10z"/>
<path d="M3900 4100 c0 -13 18 -22 24 -11 3 5 -1 11 -9 15 -8 3 -15 1 -15 -4z"/>
<path d="M4070 4100 c0 -5 5 -10 11 -10 5 0 7 5 4 10 -3 6 -8 10 -11 10 -2 0
-4 -4 -4 -10z"/>
<path d="M7786 4101 c-10 -15 18 -19 32 -5 11 12 9 14 -7 14 -11 0 -22 -4 -25
-9z"/>
<path d="M4925 4090 c-3 -5 1 -10 10 -10 9 0 13 5 10 10 -3 6 -8 10 -10 10 -2
0 -7 -4 -10 -10z"/>
<path d="M2957 4077 c-11 -29 -9 -89 4 -82 6 4 8 10 5 13 -3 3 -2 10 2 16 5 6
6 25 2 41 -5 25 -7 27 -13 12z"/>
<path d="M3943 4074 c-13 -6 -6 -34 8 -34 4 0 6 7 2 16 -5 13 -2 15 17 9 15
-5 20 -4 16 4 -7 11 -22 13 -43 5z"/>
<path d="M8275 4050 c-3 -5 1 -10 10 -10 9 0 13 5 10 10 -3 6 -8 10 -10 10 -2
0 -7 -4 -10 -10z"/>
<path d="M9050 4037 c0 -8 3 -17 7 -21 13 -13 8 -41 -10 -58 -15 -13 -16 -21
-7 -37 15 -30 40 -27 40 5 0 14 -4 23 -10 19 -5 -3 -10 -1 -10 4 0 6 7 11 15
11 15 0 15 12 -2 73 -5 20 -23 23 -23 4z"/>
<path d="M4050 4006 c0 -2 7 -6 15 -10 8 -3 15 -1 15 4 0 6 -7 10 -15 10 -8 0
-15 -2 -15 -4z"/>
<path d="M3755 3951 c-6 -11 9 -23 19 -14 9 9 7 23 -3 23 -6 0 -12 -4 -16 -9z"/>
<path d="M2971 3924 c0 -11 3 -14 6 -6 3 7 2 16 -1 19 -3 4 -6 -2 -5 -13z"/>
<path d="M3013 3893 c-18 -7 -16 -23 2 -23 8 0 15 7 15 15 0 8 -1 15 -2 14 -2
0 -9 -3 -15 -6z"/>
<path d="M2970 3830 c0 -40 3 -48 15 -44 17 7 20 24 5 24 -5 0 -10 5 -10 10 0
6 7 10 15 10 22 0 18 23 -5 38 -19 12 -20 10 -20 -38z"/>
<path d="M2942 3820 c0 -14 2 -19 5 -12 2 6 2 18 0 25 -3 6 -5 1 -5 -13z"/>
<path d="M3161 3731 c-47 -36 -2 -95 58 -76 28 9 35 40 15 70 -19 30 -40 31
-73 6z"/>
<path d="M3021 3344 c0 -11 3 -14 6 -6 3 7 2 16 -1 19 -3 4 -6 -2 -5 -13z"/>
<path d="M9028 3250 c-2 -22 0 -47 4 -57 4 -10 7 6 7 40 1 66 -5 76 -11 17z"/>
<path d="M9003 3178 c4 -12 1 -28 -5 -35 -14 -17 -6 -25 16 -17 12 4 15 13 10
28 -4 11 -7 27 -7 34 0 6 -5 12 -10 12 -5 0 -7 -10 -4 -22z"/>
<path d="M3030 3126 c0 -9 7 -16 16 -16 17 0 14 22 -4 28 -7 2 -12 -3 -12 -12z"/>
<path d="M9001 3098 c-5 -13 -5 -27 -1 -32 15 -15 40 3 40 29 0 32 -27 34 -39
3z"/>
<path d="M3030 3020 c0 -16 2 -30 4 -30 2 0 6 14 8 30 3 17 1 30 -4 30 -4 0
-8 -13 -8 -30z"/>
<path d="M9019 2985 c-1 -8 -2 -21 -3 -27 -1 -7 -5 -16 -10 -20 -5 -3 -9 -21
-8 -39 0 -18 -4 -39 -10 -46 -8 -10 -5 -13 14 -13 25 0 25 2 26 80 1 44 -1 80
-3 80 -3 0 -6 -7 -6 -15z"/>
<path d="M8997 2983 c-4 -3 -7 -11 -7 -17 0 -6 5 -5 12 2 6 6 9 14 7 17 -3 3
-9 2 -12 -2z"/>
<path d="M3040 2969 c0 -5 5 -7 10 -4 6 3 10 8 10 11 0 2 -4 4 -10 4 -5 0 -10
-5 -10 -11z"/>
<path d="M3047 2863 c-4 -3 -7 -13 -7 -22 1 -13 3 -13 11 2 11 19 8 33 -4 20z"/>
<path d="M3028 2705 c-2 -52 0 -95 5 -95 4 0 7 7 7 15 0 8 5 15 10 15 6 0 10
9 10 20 0 11 -4 20 -10 20 -5 0 -8 23 -6 55 2 30 0 57 -4 60 -5 3 -10 -38 -12
-90z"/>
<path d="M2997 2453 c-4 -9 -3 -554 3 -843 l3 -205 10 140 c10 158 12 401 6
707 -4 185 -8 227 -22 201z"/>
<path d="M3030 2441 c0 -11 5 -23 10 -26 6 -4 10 5 10 19 0 14 -4 26 -10 26
-5 0 -10 -9 -10 -19z"/>
<path d="M3045 2315 c2 -16 4 -32 4 -35 3 -13 21 27 21 45 0 15 -2 17 -9 6 -7
-11 -9 -11 -14 0 -3 8 -3 1 -2 -16z"/>
<path d="M3061 2244 c0 -11 3 -14 6 -6 3 7 2 16 -1 19 -3 4 -6 -2 -5 -13z"/>
<path d="M2981 1034 c0 -11 3 -14 6 -6 3 7 2 16 -1 19 -3 4 -6 -2 -5 -13z"/>
</g>
</svg>
